
<!-- Generator: visioncortex VTracer 0.6.4 -->
<svg version="1.1" xmlns="http://www.w3.org/2000/svg" viewBox="0 0 200 200" preserveAspectRatio="xMidYMid meet">
<path d="M0 0 C66 0 132 0 200 0 C200 66 200 132 200 200 C134 200 68 200 0 200 C0 134 0 68 0 0 Z " fill="#F5F3F1" transform="translate(0,0)"/>
<path d="M0 0 C4 1 4 1 6 4 C6 5.65 6 7.3 6 9 C7.65 9 9.3 9 11 9 C11 7.35 11 5.7 11 4 C11.99 4 12.98 4 14 4 C14 7.96 14 11.92 14 16 C14.99 16 15.98 16 17 16 C17 12.04 17 8.08 17 4 C19.97 4 22.94 4 26 4 C25.67 4.99 25.34 5.98 25 7 C23.02 7 21.04 7 19 7 C19 7.66 19 8.32 19 9 C20.98 9 22.96 9 25 9 C25 9.66 25 10.32 25 11 C23.02 11 21.04 11 19 11 C19 11.99 19 12.98 19 14 C21.31 14 23.62 14 26 14 C26.66 15.32 27.32 16.64 28 18 C29.32 17.67 30.64 17.34 32 17 C34 19 34 19 34.195 21.602 C34.172 22.599 34.149 23.597 34.125 24.625 C34.107 25.628 34.089 26.631 34.07 27.664 C34.047 28.435 34.024 29.206 34 30 C35.65 30 37.3 30 39 30 C39 27.03 39 24.06 39 21 C39.99 21 40.98 21 42 21 C42 23.97 42 26.94 42 30 C42.66 30 43.32 30 44 30 C44 27.03 44 24.06 44 21 C46.248 20.865 48.499 20.768 50.75 20.688 C52.003 20.629 53.256 20.571 54.547 20.512 C58 21 58 21 60.453 23.52 C60.964 24.338 61.474 25.157 62 26 C62.66 23.69 63.32 21.38 64 19 C66 19 68 19 70 19 C71.32 18.34 72.64 17.68 74 17 C74.99 17.99 74.99 17.99 76 19 C75.67 19.66 75.34 20.32 75 21 C76.98 21.495 76.98 21.495 79 22 C79 22.99 79 23.98 79 25 C78.34 25.33 77.68 25.66 77 26 C77 26.66 77 27.32 77 28 C77.66 28.33 78.32 28.66 79 29 C79.66 26.36 80.32 23.72 81 21 C83.97 21 86.94 21 90 21 C90 21.66 90 22.32 90 23 C88.02 23 86.04 23 84 23 C84 23.99 84 24.98 84 26 C85.65 26 87.3 26 89 26 C89 26.66 89 27.32 89 28 C87.35 28 85.7 28 84 28 C84 28.66 84 29.32 84 30 C85.98 30 87.96 30 90 30 C90 30.99 90 31.98 90 33 C88.928 33.144 87.855 33.289 86.75 33.438 C82.934 33.949 82.934 33.949 79 35 C79 35.66 79 36.32 79 37 C79.99 37 80.98 37 82 37 C81.34 38.32 80.68 39.64 80 41 C79.702 45.149 79.702 45.149 82 49 C80.02 48.505 80.02 48.505 78 48 C77.67 47.01 77.34 46.02 77 45 C76.01 45.495 76.01 45.495 75 46 C74.67 46.99 74.34 47.98 74 49 C73.01 49 72.02 49 71 49 C70.67 47.35 70.34 45.7 70 44 C69.67 45.65 69.34 47.3 69 49 C68.01 49 67.02 49 66 49 C65.67 48.34 65.34 47.68 65 47 C63.515 46.505 63.515 46.505 62 46 C62 46.99 62 47.98 62 49 C60.546 48.722 60.546 48.722 59.062 48.438 C58.052 48.293 57.041 48.149 56 48 C55.67 48.33 55.34 48.66 55 49 C50.089 49.242 47.461 49.231 43 47 C42.01 47.66 41.02 48.32 40 49 C39.01 49 38.02 49 37 49 C36.01 47.68 35.02 46.36 34 45 C33.67 46.32 33.34 47.64 33 49 C31.68 49 30.36 49 29 49 C27.68 46.03 26.36 43.06 25 40 C24.01 40 23.02 40 22 40 C22 42.97 22 45.94 22 49 C21.01 49 20.02 49 19 49 C19 46.03 19 43.06 19 40 C17.68 40 16.36 40 15 40 C15 39.34 15 38.68 15 38 C19.62 38 24.24 38 29 38 C29 36.35 29 34.7 29 33 C26.36 33 23.72 33 21 33 C20.973 31.063 20.954 29.125 20.938 27.188 C20.926 26.109 20.914 25.03 20.902 23.918 C21 21 21 21 22 18 C20.68 17.67 19.36 17.34 18 17 C18.66 18.98 19.32 20.96 20 23 C19.67 23.33 19.34 23.66 19 24 C17.35 24 15.7 24 14 24 C14 24.66 14 25.32 14 26 C15.65 26 17.3 26 19 26 C19 26.99 19 27.98 19 29 C17.35 29 15.7 29 14 29 C14 30.32 14 31.64 14 33 C12.68 33 11.36 33 10 33 C9.951 32.073 9.902 31.146 9.852 30.191 C9.777 28.994 9.702 27.796 9.625 26.562 C9.555 25.368 9.486 24.173 9.414 22.941 C9.277 21.971 9.141 21 9 20 C8.34 19.67 7.68 19.34 7 19 C7 18.34 7 17.68 7 17 C6.299 17.371 5.597 17.743 4.875 18.125 C1.236 19.233 -0.557 18.441 -4 17 C-4 13.37 -4 9.74 -4 6 C-5.32 6 -6.64 6 -8 6 C-8 5.34 -8 4.68 -8 4 C-7.051 3.897 -6.103 3.794 -5.125 3.688 C-1.709 3.315 -1.709 3.315 0 0 Z M16 18 C15.67 18.66 15.34 19.32 15 20 C15.99 19.67 16.98 19.34 18 19 C17.34 18.67 16.68 18.34 16 18 Z M32 33 C31.67 34.32 31.34 35.64 31 37 C33.475 37.495 33.475 37.495 36 38 C36.66 39.98 37.32 41.96 38 44 C38.66 43.67 39.32 43.34 40 43 C39.67 41.68 39.34 40.36 39 39 C38 35 38 35 39 33 C36.69 33 34.38 33 32 33 Z M58 43 C59 47 59 47 59 47 Z M34 15 C34.66 15.99 35.32 16.98 36 18 C35.01 18 34.02 18 33 18 C33.33 17.01 33.66 16.02 34 15 Z M34 35 C36 36 36 36 36 36 Z " fill="#F4F2EF" transform="translate(81,73)"/>
<path d="M0 0 C3 0.25 3 0.25 5 2.25 C4.619 7.108 3.423 11.601 2 16.25 C2.66 16.25 3.32 16.25 4 16.25 C4 15.59 4 14.93 4 14.25 C4.66 14.25 5.32 14.25 6 14.25 C6 13.59 6 12.93 6 12.25 C6.66 12.25 7.32 12.25 8 12.25 C8.144 11.446 8.289 10.641 8.438 9.812 C9 7.25 9 7.25 10 6.25 C11.65 6.25 13.3 6.25 15 6.25 C16 7.25 16 7.25 16.062 10.312 C16.042 11.282 16.021 12.251 16 13.25 C12.667 14.917 9.333 16.583 6 18.25 C6 18.91 6 19.57 6 20.25 C11.015 19.92 11.015 19.92 15 17.25 C16.65 17.25 18.3 17.25 20 17.25 C20.99 18.24 21.98 19.23 23 20.25 C22.755 23.592 22.395 24.855 20 27.25 C16.375 26.875 16.375 26.875 13 26.25 C13 25.59 13 24.93 13 24.25 C10.69 24.25 8.38 24.25 6 24.25 C6 24.91 6 25.57 6 26.25 C8.36 27.43 10.748 28.558 13.188 29.562 C16 31.25 16 31.25 17 33.812 C17 34.617 17 35.421 17 36.25 C16.34 36.91 15.68 37.57 15 38.25 C13.35 38.25 11.7 38.25 10 38.25 C9.34 37.59 8.68 36.93 8 36.25 C8 34.93 8 33.61 8 32.25 C6.68 31.59 5.36 30.93 4 30.25 C4 31.9 4 33.55 4 35.25 C4.495 35.745 4.495 35.745 5 36.25 C5.188 39.188 5.188 39.188 5 42.25 C3 44.25 3 44.25 0 44.5 C-3 44.25 -3 44.25 -5 42.25 C-5 37.25 -5 37.25 -3 35.25 C-2.602 33.262 -2.262 31.261 -2 29.25 C-5.739 31.907 -7.65 33.831 -9 38.25 C-10.98 38.25 -12.96 38.25 -15 38.25 C-17 31.5 -17 31.5 -17 29.25 C-18.238 28.384 -18.238 28.384 -19.5 27.5 C-22 25.25 -22 25.25 -22.438 22.125 C-22 19.25 -22 19.25 -20 17.25 C-16.375 17.625 -16.375 17.625 -13 18.25 C-13 18.91 -13 19.57 -13 20.25 C-10.69 20.25 -8.38 20.25 -6 20.25 C-8.678 16.481 -10.595 14.679 -15 13.25 C-15.33 12.92 -15.66 12.59 -16 12.25 C-16 7.25 -16 7.25 -15 6.25 C-13 6.209 -11 6.207 -9 6.25 C-8.381 7.642 -8.381 7.642 -7.75 9.062 C-6.084 12.617 -6.084 12.617 -2 15.25 C-2.86 10.918 -2.86 10.918 -5 7.25 C-5 0.417 -5 0.417 0 0 Z " fill="#F5E8E3" transform="translate(39,77.75)"/>
<path d="M0 0 C4 1 4 1 6 4 C6 5.65 6 7.3 6 9 C7.65 9 9.3 9 11 9 C11 7.35 11 5.7 11 4 C11.99 4 12.98 4 14 4 C14 7.96 14 11.92 14 16 C14.99 16 15.98 16 17 16 C17 12.04 17 8.08 17 4 C19.97 4 22.94 4 26 4 C25.67 4.99 25.34 5.98 25 7 C23.02 7 21.04 7 19 7 C19 7.66 19 8.32 19 9 C20.98 9 22.96 9 25 9 C25 9.66 25 10.32 25 11 C23.02 11 21.04 11 19 11 C19 11.99 19 12.98 19 14 C21.31 14 23.62 14 26 14 C26.66 15.32 27.32 16.64 28 18 C29.32 17.67 30.64 17.34 32 17 C34 19 34 19 34.195 21.602 C34.172 22.599 34.149 23.597 34.125 24.625 C34.107 25.628 34.089 26.631 34.07 27.664 C34.047 28.435 34.024 29.206 34 30 C35.65 30 37.3 30 39 30 C39 27.03 39 24.06 39 21 C39.99 21 40.98 21 42 21 C42.188 25.312 42.188 25.312 42 30 C38.809 33.191 38.141 33.275 34 34 C33.01 34.66 32.02 35.32 31 36 C30.01 35.505 30.01 35.505 29 35 C29 34.34 29 33.68 29 33 C26.36 33 23.72 33 21 33 C20.973 31.063 20.954 29.125 20.938 27.188 C20.926 26.109 20.914 25.03 20.902 23.918 C21 21 21 21 22 18 C20.68 17.67 19.36 17.34 18 17 C18.66 18.98 19.32 20.96 20 23 C19.67 23.33 19.34 23.66 19 24 C17.35 24 15.7 24 14 24 C14 24.66 14 25.32 14 26 C15.65 26 17.3 26 19 26 C19 26.99 19 27.98 19 29 C17.35 29 15.7 29 14 29 C14 30.32 14 31.64 14 33 C12.68 33 11.36 33 10 33 C9.951 32.073 9.902 31.146 9.852 30.191 C9.777 28.994 9.702 27.796 9.625 26.562 C9.555 25.368 9.486 24.173 9.414 22.941 C9.277 21.971 9.141 21 9 20 C8.34 19.67 7.68 19.34 7 19 C7 18.34 7 17.68 7 17 C6.299 17.371 5.597 17.743 4.875 18.125 C1.236 19.233 -0.557 18.441 -4 17 C-4 13.37 -4 9.74 -4 6 C-5.32 6 -6.64 6 -8 6 C-8 5.34 -8 4.68 -8 4 C-7.051 3.897 -6.103 3.794 -5.125 3.688 C-1.709 3.315 -1.709 3.315 0 0 Z M16 18 C15.67 18.66 15.34 19.32 15 20 C15.99 19.67 16.98 19.34 18 19 C17.34 18.67 16.68 18.34 16 18 Z M34 15 C34.66 15.99 35.32 16.98 36 18 C35.01 18 34.02 18 33 18 C33.33 17.01 33.66 16.02 34 15 Z M34 35 C36 36 36 36 36 36 Z M29 36 C33 36 33 36 37 38 C38.25 40.625 38.25 40.625 39 43 C39.66 41.35 40.32 39.7 41 38 C41.99 38 42.98 38 44 38 C43.604 39.651 43.183 41.296 42.75 42.938 C42.518 43.854 42.286 44.771 42.047 45.715 C41.701 46.469 41.356 47.223 41 48 C39.68 48.33 38.36 48.66 37 49 C36.01 47.68 35.02 46.36 34 45 C33.67 46.32 33.34 47.64 33 49 C31.68 49 30.36 49 29 49 C27.68 46.03 26.36 43.06 25 40 C24.01 40 23.02 40 22 40 C22 42.97 22 45.94 22 49 C21.01 49 20.02 49 19 49 C19 46.03 19 43.06 19 40 C17.68 40 16.36 40 15 40 C15 39.34 15 38.68 15 38 C19.62 38 24.24 38 29 38 C29 37.34 29 36.68 29 36 Z " fill="#F8C1B7" transform="translate(81,73)"/>
<path d="M0 0 C3.3 0 6.6 0 10 0 C10.982 4.053 11.082 7.839 11 12 C11.99 12 12.98 12 14 12 C14 9.69 14 7.38 14 5 C15.65 6.65 17.3 8.3 19 10 C18.01 10.495 18.01 10.495 17 11 C16.136 14.832 15.522 18.684 14.879 22.559 C14 26 14 26 11 28 C6.044 28.315 3.495 28.248 -1 26 C-1.66 26 -2.32 26 -3 26 C-2.01 23.03 -1.02 20.06 0 17 C-0.99 17 -1.98 17 -3 17 C-3.33 17.66 -3.66 18.32 -4 19 C-4.66 19 -5.32 19 -6 19 C-6.75 16.812 -6.75 16.812 -7 14 C-5.25 11.188 -5.25 11.188 -3 9 C-2.01 9 -1.02 9 0 9 C0 6.03 0 3.06 0 0 Z " fill="#F4EDE9" transform="translate(125,94)"/>
<path d="M0 0 C0.99 0 1.98 0 3 0 C3 3.63 3 7.26 3 11 C3.66 11 4.32 11 5 11 C5 7.37 5 3.74 5 0 C9 1 9 1 12 5 C12.33 3.35 12.66 1.7 13 0 C13.99 0 14.98 0 16 0 C16 3.96 16 7.92 16 12 C15.01 12.495 15.01 12.495 14 13 C14 13.99 14 14.98 14 16 C16.64 16 19.28 16 22 16 C22 16.99 22 17.98 22 19 C20.02 19 18.04 19 16 19 C16 19.66 16 20.32 16 21 C17.98 21 19.96 21 22 21 C21.67 21.99 21.34 22.98 21 24 C19.35 24 17.7 24 16 24 C16 24.66 16 25.32 16 26 C17.98 26 19.96 26 22 26 C22 26.66 22 27.32 22 28 C19.03 28 16.06 28 13 28 C13 24.37 13 20.74 13 17 C12.34 17 11.68 17 11 17 C11 20.63 11 24.26 11 28 C7 27 7 27 4 24 C3.67 25.32 3.34 26.64 3 28 C2.01 28 1.02 28 0 28 C0 24.04 0 20.08 0 16 C1.32 15.67 2.64 15.34 4 15 C3.67 14.34 3.34 13.68 3 13 C2.01 12.67 1.02 12.34 0 12 C0 8.04 0 4.08 0 0 Z " fill="#F4E8E2" transform="translate(73,94)"/>
<path d="M0 0 C3 0.25 3 0.25 5 2.25 C5 3.9 5 5.55 5 7.25 C4.34 5.93 3.68 4.61 3 3.25 C-0.636 2.169 -0.636 2.169 -3 2.25 C-2.67 3.075 -2.34 3.9 -2 4.75 C-0.867 8.717 -0.858 12.144 -1 16.25 C-1.33 16.25 -1.66 16.25 -2 16.25 C-2.124 15.136 -2.248 14.023 -2.375 12.875 C-2.647 9.219 -2.647 9.219 -5 7.25 C-5 0.417 -5 0.417 0 0 Z M10 6.25 C11.65 6.25 13.3 6.25 15 6.25 C16 7.25 16 7.25 16.062 10.312 C16.042 11.282 16.021 12.251 16 13.25 C11 15.75 11 15.75 6 18.25 C6.66 16.93 7.32 15.61 8 14.25 C6.68 15.57 5.36 16.89 4 18.25 C3.01 17.92 2.02 17.59 1 17.25 C1 14.28 1 11.31 1 8.25 C1.99 7.92 2.98 7.59 4 7.25 C3.34 10.22 2.68 13.19 2 16.25 C2.66 16.25 3.32 16.25 4 16.25 C4 15.59 4 14.93 4 14.25 C4.66 14.25 5.32 14.25 6 14.25 C6 13.59 6 12.93 6 12.25 C6.66 12.25 7.32 12.25 8 12.25 C8.144 11.446 8.289 10.641 8.438 9.812 C9 7.25 9 7.25 10 6.25 Z M15 17.25 C16.65 17.25 18.3 17.25 20 17.25 C20.99 18.24 21.98 19.23 23 20.25 C22.755 23.592 22.395 24.855 20 27.25 C16.375 26.875 16.375 26.875 13 26.25 C13 25.59 13 24.93 13 24.25 C10.69 24.25 8.38 24.25 6 24.25 C5.67 24.91 5.34 25.57 5 26.25 C5 25.26 5 24.27 5 23.25 C7.999 23.164 11.001 23.169 14 23.25 C14.66 23.91 15.32 24.57 16 25.25 C17.32 24.92 18.64 24.59 20 24.25 C19.67 22.6 19.34 20.95 19 19.25 C15.257 19.821 15.257 19.821 14 21.25 C11 21.291 8 21.292 5 21.25 C5.33 20.26 5.66 19.27 6 18.25 C6 18.91 6 19.57 6 20.25 C11.015 19.92 11.015 19.92 15 17.25 Z M-14 23.25 C-11.03 23.25 -8.06 23.25 -5 23.25 C-5.33 24.24 -5.66 25.23 -6 26.25 C-6 25.59 -6 24.93 -6 24.25 C-8.31 24.25 -10.62 24.25 -13 24.25 C-13 24.91 -13 25.57 -13 26.25 C-13.66 25.92 -14.32 25.59 -15 25.25 C-14.67 24.59 -14.34 23.93 -14 23.25 Z M6 26.25 C7.32 26.91 8.64 27.57 10 28.25 C11.578 28.9 11.578 28.9 13.188 29.562 C16 31.25 16 31.25 17 33.812 C17 34.617 17 35.421 17 36.25 C16.34 36.91 15.68 37.57 15 38.25 C13.35 38.25 11.7 38.25 10 38.25 C9.34 37.59 8.68 36.93 8 36.25 C8 34.93 8 33.61 8 32.25 C6.68 31.59 5.36 30.93 4 30.25 C4 31.9 4 33.55 4 35.25 C4.33 35.58 4.66 35.91 5 36.25 C5.188 39.188 5.188 39.188 5 42.25 C3 44.25 3 44.25 0 44.5 C-3 44.25 -3 44.25 -5 42.25 C-5 37.25 -5 37.25 -3 35.25 C-2.602 33.262 -2.262 31.261 -2 29.25 C-5.739 31.907 -7.65 33.831 -9 38.25 C-11 38.293 -13 38.291 -15 38.25 C-15.33 37.92 -15.66 37.59 -16 37.25 C-16 32.25 -16 32.25 -14 30.25 C-12.68 30.25 -11.36 30.25 -10 30.25 C-10 30.91 -10 31.57 -10 32.25 C-11.32 32.58 -12.64 32.91 -14 33.25 C-14 34.57 -14 35.89 -14 37.25 C-9.707 35.104 -9.225 34.216 -7 30.25 C-6.01 29.26 -5.02 28.27 -4 27.25 C-3.01 27.25 -2.02 27.25 -1 27.25 C-0.958 30.25 -0.959 33.25 -1 36.25 C-1.33 36.58 -1.66 36.91 -2 37.25 C-2 38.9 -2 40.55 -2 42.25 C-0.35 41.92 1.3 41.59 3 41.25 C2.429 37.507 2.429 37.507 1 36.25 C0.959 33.25 0.958 30.25 1 27.25 C5.299 27.728 7.294 28.867 10 32.25 C10.33 33.57 10.66 34.89 11 36.25 C11.99 36.25 12.98 36.25 14 36.25 C14 35.26 14 34.27 14 33.25 C12.349 32.224 10.68 31.227 9 30.25 C8.01 28.93 7.02 27.61 6 26.25 Z " fill="#F9765E" transform="translate(39,77.75)"/>
<path d="M0 0 C1.32 0 2.64 0 4 0 C4 2.97 4 5.94 4 9 C5.98 9 7.96 9 10 9 C10 6.03 10 3.06 10 0 C10.99 0 11.98 0 13 0 C13 2.97 13 5.94 13 9 C14.65 9 16.3 9 18 9 C18 6.03 18 3.06 18 0 C18.99 0 19.98 0 21 0 C21.188 4.312 21.188 4.312 21 9 C17.809 12.191 17.141 12.275 13 13 C12.01 13.66 11.02 14.32 10 15 C9.34 14.67 8.68 14.34 8 14 C8 13.34 8 12.68 8 12 C5.36 12 2.72 12 0 12 C0 8.04 0 4.08 0 0 Z M13 14 C15 15 15 15 15 15 Z M8 15 C12 15 12 15 16 17 C17.25 19.625 17.25 19.625 18 22 C18.66 20.35 19.32 18.7 20 17 C20.99 17 21.98 17 23 17 C22.604 18.651 22.183 20.296 21.75 21.938 C21.518 22.854 21.286 23.771 21.047 24.715 C20.701 25.469 20.356 26.223 20 27 C18.68 27.33 17.36 27.66 16 28 C15.01 26.68 14.02 25.36 13 24 C12.67 25.32 12.34 26.64 12 28 C10.68 28 9.36 28 8 28 C6.68 25.03 5.36 22.06 4 19 C3.01 19 2.02 19 1 19 C1 21.97 1 24.94 1 28 C0.01 28 -0.98 28 -2 28 C-2 25.03 -2 22.06 -2 19 C-3.32 19 -4.64 19 -6 19 C-6 18.34 -6 17.68 -6 17 C-1.38 17 3.24 17 8 17 C8 16.34 8 15.68 8 15 Z " fill="#F6E1DB" transform="translate(102,94)"/>
<path d="M0 0 C1.65 0 3.3 0 5 0 C5.33 0.66 5.66 1.32 6 2 C4.35 2 2.7 2 1 2 C1 2.99 1 3.98 1 5 C1.722 5.227 2.444 5.454 3.188 5.688 C6.643 7.3 8.636 9.01 11 12 C10.812 14.812 10.812 14.812 10 17 C7.03 17 4.06 17 1 17 C2.184 18.416 2.184 18.416 5.562 18.062 C7.264 18.032 7.264 18.032 9 18 C6.22 23.561 6.22 23.561 1.875 25.125 C0.452 25.558 0.452 25.558 -1 26 C-1.33 25.01 -1.66 24.02 -2 23 C-2.846 22.402 -3.691 21.804 -4.562 21.188 C-7 19 -7 19 -7.438 15.875 C-7 13 -7 13 -5 11 C-1.375 11.375 -1.375 11.375 2 12 C2 12.66 2 13.32 2 14 C4.31 14 6.62 14 9 14 C6.322 10.231 4.405 8.429 0 7 C-0.33 6.67 -0.66 6.34 -1 6 C-1 1 -1 1 0 0 Z M11 20 C13 21 13 21 13 21 Z M8 21 C8.66 21.66 9.32 22.32 10 23 C9.01 23.99 8.02 24.98 7 26 C6.505 26.887 6.01 27.774 5.5 28.688 C5.005 29.451 4.51 30.214 4 31 C3.01 31 2.02 31 1 31 C0.67 29.68 0.34 28.36 0 27 C1.176 26.876 1.176 26.876 2.375 26.75 C3.241 26.502 4.108 26.255 5 26 C5.66 24.68 6.32 23.36 7 22 C7.33 21.67 7.66 21.34 8 21 Z " fill="#F8A595" transform="translate(24,84)"/>
<path d="M0 0 C2.31 0 4.62 0 7 0 C6.01 0.33 5.02 0.66 4 1 C3.67 5.95 3.34 10.9 3 16 C5.64 16 8.28 16 11 16 C11 16.66 11 17.32 11 18 C11.66 18.33 12.32 18.66 13 19 C12.34 19 11.68 19 11 19 C10.67 19.66 10.34 20.32 10 21 C2.586 21.094 -4.655 21.175 -12 20 C-12.33 18.68 -12.66 17.36 -13 16 C-11.68 16 -10.36 16 -9 16 C-9 12.04 -9 8.08 -9 4 C-8.67 4 -8.34 4 -8 4 C-8 7.96 -8 11.92 -8 16 C-6.68 16 -5.36 16 -4 16 C-4 14.68 -4 13.36 -4 12 C-2.35 12 -0.7 12 1 12 C1 11.01 1 10.02 1 9 C-0.65 9 -2.3 9 -4 9 C-4 8.34 -4 7.68 -4 7 C-2.35 6.67 -0.7 6.34 1 6 C0.67 4.02 0.34 2.04 0 0 Z M-2 1 C-1.34 1.66 -0.68 2.32 0 3 C-0.99 2.67 -1.98 2.34 -3 2 C-2.67 1.67 -2.34 1.34 -2 1 Z M14 16 C16.31 16 18.62 16 21 16 C20.67 17.32 20.34 18.64 20 20 C20.66 20.66 21.32 21.32 22 22 C21.625 24.625 21.625 24.625 21 27 C19 24 19 24 18 21 C17.34 20.34 16.68 19.68 16 19 C15.34 18.01 14.68 17.02 14 16 Z M14 18 C14.66 18.33 15.32 18.66 16 19 C15.34 19.66 14.68 20.32 14 21 C14 20.01 14 19.02 14 18 Z " fill="#F4F7F5" transform="translate(99,90)"/>
<path d="M0 0 C2.97 0 5.94 0 9 0 C8.67 0.99 8.34 1.98 8 3 C6.02 3 4.04 3 2 3 C2 3.66 2 4.32 2 5 C3.98 5 5.96 5 8 5 C8 5.66 8 6.32 8 7 C6.02 7 4.04 7 2 7 C2 7.99 2 8.98 2 10 C4.31 10 6.62 10 9 10 C9.66 11.32 10.32 12.64 11 14 C12.32 13.67 13.64 13.34 15 13 C15.66 14.32 16.32 15.64 17 17 C16.01 17 15.02 17 14 17 C14 19.97 14 22.94 14 26 C12.02 26 10.04 26 8 26 C8 23.03 8 20.06 8 17 C7.01 17 6.02 17 5 17 C5 16.01 5 15.02 5 14 C3.68 13.67 2.36 13.34 1 13 C0.67 13.66 0.34 14.32 0 15 C-1.472 12.056 -0.849 9.626 -0.562 6.375 C-0.461 5.186 -0.359 3.998 -0.254 2.773 C-0.17 1.858 -0.086 0.943 0 0 Z M-10 8 C-8.68 8 -7.36 8 -6 8 C-6 9.98 -6 11.96 -6 14 C-7.333 13.333 -8.667 12.667 -10 12 C-10 10.68 -10 9.36 -10 8 Z M17 11 C17.66 11.99 18.32 12.98 19 14 C18.01 14 17.02 14 16 14 C16.33 13.01 16.66 12.02 17 11 Z M-6 14 C-1 14 -1 14 2 15 C2 15.66 2 16.32 2 17 C0.02 17 -1.96 17 -4 17 C-4 16.34 -4 15.68 -4 15 C-4.66 14.67 -5.32 14.34 -6 14 Z " fill="#F6F3F1" transform="translate(98,77)"/>
<path d="M0 0 C4.62 0 9.24 0 14 0 C14.33 1.98 14.66 3.96 15 6 C15.66 6 16.32 6 17 6 C17.33 4.02 17.66 2.04 18 0 C19.32 0.33 20.64 0.66 22 1 C22.66 2.32 23.32 3.64 24 5 C24.66 3.35 25.32 1.7 26 0 C26.99 0 27.98 0 29 0 C28.604 1.651 28.183 3.296 27.75 4.938 C27.518 5.854 27.286 6.771 27.047 7.715 C26.701 8.469 26.356 9.223 26 10 C24.68 10.33 23.36 10.66 22 11 C21.01 9.68 20.02 8.36 19 7 C18.67 8.32 18.34 9.64 18 11 C16.68 11 15.36 11 14 11 C12.68 8.03 11.36 5.06 10 2 C9.01 2 8.02 2 7 2 C7 4.97 7 7.94 7 11 C6.01 11 5.02 11 4 11 C4 8.03 4 5.06 4 2 C2.68 2 1.36 2 0 2 C0 1.34 0 0.68 0 0 Z " fill="#FA553F" transform="translate(96,111)"/>
<path d="M0 0 C4 1 4 1 6 4 C6 5.65 6 7.3 6 9 C7.65 9 9.3 9 11 9 C11 7.35 11 5.7 11 4 C11.99 4 12.98 4 14 4 C14 7.96 14 11.92 14 16 C13.34 16 12.68 16 12 16 C12 14.35 12 12.7 12 11 C10.02 11 8.04 11 6 11 C6 12.65 6 14.3 6 16 C5.01 16 4.02 16 3 16 C3 13.03 3 10.06 3 7 C1.35 7 -0.3 7 -2 7 C-2 9.97 -2 12.94 -2 16 C-2.66 16 -3.32 16 -4 16 C-4 12.7 -4 9.4 -4 6 C-5.32 6 -6.64 6 -8 6 C-8 5.34 -8 4.68 -8 4 C-7.051 3.897 -6.103 3.794 -5.125 3.688 C-1.709 3.315 -1.709 3.315 0 0 Z " fill="#F8C0B6" transform="translate(81,73)"/>
<path d="M0 0 C2.97 0 5.94 0 9 0 C8.67 0.99 8.34 1.98 8 3 C8 2.34 8 1.68 8 1 C5.69 1 3.38 1 1 1 C1 1.66 1 2.32 1 3 C0.34 2.67 -0.32 2.34 -1 2 C-0.67 1.34 -0.34 0.68 0 0 Z M10 4 C10.99 4 11.98 4 13 4 C13.042 7 13.041 10 13 13 C12.67 13.33 12.34 13.66 12 14 C12 15.65 12 17.3 12 19 C13.65 18.67 15.3 18.34 17 18 C16.217 14.253 16.217 14.253 15 12 C15.282 9.66 15.613 7.325 16 5 C16.66 5.33 17.32 5.66 18 6 C17.979 6.969 17.959 7.939 17.938 8.938 C17.644 11.875 17.644 11.875 19 13 C19.188 15.938 19.188 15.938 19 19 C17 21 17 21 14 21.25 C11 21 11 21 9 19 C9 14 9 14 11 12 C11.398 10.012 11.738 8.011 12 6 C8.261 8.657 6.35 10.581 5 15 C3 15.043 1 15.041 -1 15 C-1.33 14.67 -1.66 14.34 -2 14 C-2 9 -2 9 0 7 C1.32 7 2.64 7 4 7 C4 7.66 4 8.32 4 9 C2.68 9.33 1.36 9.66 0 10 C0 11.32 0 12.64 0 14 C4.293 11.854 4.775 10.966 7 7 C7.99 6.01 8.98 5.02 10 4 Z " fill="#F9775E" transform="translate(25,101)"/>
<path d="M0 0 C4 0.25 4 0.25 6 2.25 C6.25 5.75 6.25 5.75 6 9.25 C4 11.25 4 11.25 0 11.5 C-4 11.25 -4 11.25 -6 9.25 C-6.25 5.75 -6.25 5.75 -6 2.25 C-4 0.25 -4 0.25 0 0 Z " fill="#FA5039" transform="translate(132,110.75)"/>
<path d="M0 0 C3 0.25 3 0.25 5 2.25 C5 3.9 5 5.55 5 7.25 C4.34 5.93 3.68 4.61 3 3.25 C-0.636 2.169 -0.636 2.169 -3 2.25 C-2.67 3.075 -2.34 3.9 -2 4.75 C-0.867 8.717 -0.858 12.144 -1 16.25 C-1.33 16.25 -1.66 16.25 -2 16.25 C-2.124 15.136 -2.248 14.023 -2.375 12.875 C-2.647 9.219 -2.647 9.219 -5 7.25 C-5 0.417 -5 0.417 0 0 Z M10 6.25 C11.65 6.25 13.3 6.25 15 6.25 C16 7.25 16 7.25 16.062 10.312 C16.042 11.282 16.021 12.251 16 13.25 C13 14.25 13 14.25 9 13.25 C6.229 15.604 6.229 15.604 4 18.25 C3.01 17.92 2.02 17.59 1 17.25 C1 14.28 1 11.31 1 8.25 C1.99 7.92 2.98 7.59 4 7.25 C3.34 10.22 2.68 13.19 2 16.25 C2.66 16.25 3.32 16.25 4 16.25 C4 15.59 4 14.93 4 14.25 C4.66 14.25 5.32 14.25 6 14.25 C6 13.59 6 12.93 6 12.25 C6.66 12.25 7.32 12.25 8 12.25 C8.144 11.446 8.289 10.641 8.438 9.812 C9 7.25 9 7.25 10 6.25 Z " fill="#F89380" transform="translate(39,77.75)"/>
<path d="M0 0 C6.625 -0.25 6.625 -0.25 10 2 C10 5.333 10 8.667 10 12 C9.01 12 8.02 12 7 12 C6.67 11.34 6.34 10.68 6 10 C5.01 9.67 4.02 9.34 3 9 C3 9.99 3 10.98 3 12 C2.01 12 1.02 12 0 12 C0 8.04 0 4.08 0 0 Z " fill="#FA5038" transform="translate(173,94)"/>
<path d="M0 0 C4 1 4 1 7 5 C7.33 3.35 7.66 1.7 8 0 C8.99 0 9.98 0 11 0 C11 3.96 11 7.92 11 12 C10.01 12 9.02 12 8 12 C5.812 9 5.812 9 4 6 C3.67 7.98 3.34 9.96 3 12 C2.01 12 1.02 12 0 12 C0 8.04 0 4.08 0 0 Z " fill="#F9513D" transform="translate(136,94)"/>
<path d="M0 0 C4.29 0 8.58 0 13 0 C13 0.33 13 0.66 13 1 C8.71 1 4.42 1 0 1 C0 0.67 0 0.34 0 0 Z M-1 1 C-0.67 1.66 -0.34 2.32 0 3 C1.32 3 2.64 3 4 3 C4 5.97 4 8.94 4 12 C3.01 12 2.02 12 1 12 C1 12.33 1 12.66 1 13 C-2.3 13 -5.6 13 -9 13 C-9 12.67 -9 12.34 -9 12 C-6.36 12 -3.72 12 -1 12 C-1 11.34 -1 10.68 -1 10 C-2.98 10 -4.96 10 -7 10 C-7 9.34 -7 8.68 -7 8 C-6.196 7.876 -5.391 7.752 -4.562 7.625 C-3.717 7.419 -2.871 7.213 -2 7 C-1.67 6.34 -1.34 5.68 -1 5 C-2.98 5 -4.96 5 -7 5 C-7 4.34 -7 3.68 -7 3 C-5.02 3 -3.04 3 -1 3 C-1 2.34 -1 1.68 -1 1 Z " fill="#F5E0D9" transform="translate(96,110)"/>
<path d="M0 0 C4 1 4 1 7 5 C7.33 3.35 7.66 1.7 8 0 C8.99 0 9.98 0 11 0 C11 3.96 11 7.92 11 12 C7 10 7 10 4 6 C3.67 7.98 3.34 9.96 3 12 C2.01 12 1.02 12 0 12 C0 8.04 0 4.08 0 0 Z " fill="#F95945" transform="translate(78,94)"/>
<path d="M0 0 C4 1 4 1 7 5 C7.33 3.35 7.66 1.7 8 0 C8.99 0 9.98 0 11 0 C11 3.63 11 7.26 11 11 C7 10 7 10 4 7 C3.67 8.32 3.34 9.64 3 11 C2.01 11 1.02 11 0 11 C0 7.37 0 3.74 0 0 Z " fill="#F9513D" transform="translate(73,111)"/>
<path d="M0 0 C2.666 -0.042 5.334 -0.041 8 0 C9 1 9 1 9.098 3.285 C9.049 7.143 9.049 7.143 9 11 C8.01 11 7.02 11 6 11 C5.67 10.34 5.34 9.68 5 9 C4.01 8.67 3.02 8.34 2 8 C2 8.99 2 9.98 2 11 C1.34 11 0.68 11 0 11 C0 7.37 0 3.74 0 0 Z " fill="#F96553" transform="translate(141,111)"/>
<path d="M0 0 C2.97 0 5.94 0 9 0 C9 0.66 9 1.32 9 2 C7.02 2 5.04 2 3 2 C3 2.99 3 3.98 3 5 C4.65 5 6.3 5 8 5 C8 5.66 8 6.32 8 7 C6.35 7 4.7 7 3 7 C3 7.66 3 8.32 3 9 C4.98 9 6.96 9 9 9 C9.33 9.99 9.66 10.98 10 12 C6.7 12 3.4 12 0 12 C0 8.04 0 4.08 0 0 Z " fill="#FA5943" transform="translate(125,94)"/>
<path d="M0 0 C2.97 0 5.94 0 9 0 C9 0.66 9 1.32 9 2 C7.02 2 5.04 2 3 2 C3 2.99 3 3.98 3 5 C4.65 5 6.3 5 8 5 C8 5.66 8 6.32 8 7 C6.35 7 4.7 7 3 7 C3 7.66 3 8.32 3 9 C4.98 9 6.96 9 9 9 C9 9.99 9 10.98 9 12 C6.03 12 3.06 12 0 12 C0 8.04 0 4.08 0 0 Z " fill="#FA563F" transform="translate(162,94)"/>
<path d="M0 0 C0.99 0 1.98 0 3 0 C3 2.97 3 5.94 3 9 C4.65 9 6.3 9 8 9 C8 6.03 8 3.06 8 0 C8.99 0 9.98 0 11 0 C11.188 4.312 11.188 4.312 11 9 C10.01 9.99 9.02 10.98 8 12 C6.35 12 4.7 12 3 12 C0 9 0 9 -0.188 4.312 C-0.126 2.889 -0.064 1.466 0 0 Z " fill="#F95B46" transform="translate(112,94)"/>
<path d="M0 0 C2.97 0 5.94 0 9 0 C9 0.66 9 1.32 9 2 C7.02 2 5.04 2 3 2 C3 2.66 3 3.32 3 4 C4.98 4 6.96 4 9 4 C8.67 4.99 8.34 5.98 8 7 C6.35 7 4.7 7 3 7 C3 7.66 3 8.32 3 9 C4.98 9 6.96 9 9 9 C9 9.66 9 10.32 9 11 C6.03 11 3.06 11 0 11 C0 7.37 0 3.74 0 0 Z " fill="#FA5943" transform="translate(86,111)"/>
<path d="M0 0 C2.97 0 5.94 0 9 0 C8.67 0.99 8.34 1.98 8 3 C6.02 3 4.04 3 2 3 C2 3.66 2 4.32 2 5 C3.98 5 5.96 5 8 5 C8 5.66 8 6.32 8 7 C6.02 7 4.04 7 2 7 C2 7.99 2 8.98 2 10 C4.31 10 6.62 10 9 10 C9 10.66 9 11.32 9 12 C6.03 12 3.06 12 0 12 C0 8.04 0 4.08 0 0 Z " fill="#FA533E" transform="translate(98,77)"/>
<path d="M0 0 C0.99 0 1.98 0 3 0 C3 3.96 3 7.92 3 12 C2.34 12 1.68 12 1 12 C1 10.35 1 8.7 1 7 C-0.98 7 -2.96 7 -5 7 C-5 8.65 -5 10.3 -5 12 C-5.66 12 -6.32 12 -7 12 C-7 8.37 -7 4.74 -7 1 C-6.34 1 -5.68 1 -5 1 C-5 2.32 -5 3.64 -5 5 C-3.35 5 -1.7 5 0 5 C0 3.35 0 1.7 0 0 Z " fill="#FA442F" transform="translate(92,77)"/>
<path d="M0 0 C3 0.188 3 0.188 5 1.188 C5 1.847 5 2.507 5 3.188 C3.02 3.188 1.04 3.188 -1 3.188 C-1.33 4.838 -1.66 6.487 -2 8.188 C1.798 9.309 1.798 9.309 5 9.188 C5 9.847 5 10.507 5 11.188 C1.75 11.938 1.75 11.938 -2 12.188 C-4.5 10.625 -4.5 10.625 -6 8.188 C-5.807 3.361 -5.302 0.331 0 0 Z " fill="#FA523B" transform="translate(155,93.8125)"/>
<path d="M0 0 C0.66 1.32 1.32 2.64 2 4 C3.974 5.05 5.976 6.05 8 7 C8.99 7.99 9.98 8.98 11 10 C11 10.66 11 11.32 11 12 C8.69 12 6.38 12 4 12 C4 11.34 4 10.68 4 10 C1.03 9.505 1.03 9.505 -2 9 C-1.34 8.67 -0.68 8.34 0 8 C-0.33 6.68 -0.66 5.36 -1 4 C-0.67 2.68 -0.34 1.36 0 0 Z " fill="#F5E5E0" transform="translate(22,86)"/>
<path d="M0 0 C0.66 0 1.32 0 2 0 C2.33 1.32 2.66 2.64 3 4 C4.32 2.68 5.64 1.36 7 0 C7.66 0.33 8.32 0.66 9 1 C8.608 1.722 8.216 2.444 7.812 3.188 C6.641 6.063 6.641 6.063 8.375 8.812 C8.911 9.534 9.447 10.256 10 11 C8.68 10.67 7.36 10.34 6 10 C5.67 9.01 5.34 8.02 5 7 C4.01 7.495 4.01 7.495 3 8 C2.67 8.99 2.34 9.98 2 11 C1.34 11 0.68 11 0 11 C0 7.37 0 3.74 0 0 Z " fill="#FA402A" transform="translate(153,111)"/>
<path d="M0 0 C2.64 0.66 5.28 1.32 8 2 C6.68 2.99 5.36 3.98 4 5 C3.67 6.32 3.34 7.64 3 9 C2.34 9 1.68 9 1 9 C1 9.66 1 10.32 1 11 C0.34 11 -0.32 11 -1 11 C-1 11.66 -1 12.32 -1 13 C-1.66 13 -2.32 13 -3 13 C-3.371 7.923 -2.189 4.561 0 0 Z " fill="#F5E6DF" transform="translate(44,81)"/>
<path d="M0 0 C1.65 1.65 3.3 3.3 5 5 C4.01 5.495 4.01 5.495 3 6 C2.37 8.5 1.844 11.027 1.375 13.562 C1.115 14.946 0.854 16.329 0.586 17.754 C0.393 18.825 0.199 19.896 0 21 C-0.33 21 -0.66 21 -1 21 C-1.144 19.948 -1.289 18.896 -1.438 17.812 C-1.875 14.845 -2.378 11.932 -3 9 C-2.01 8.67 -1.02 8.34 0 8 C0 5.36 0 2.72 0 0 Z " fill="#F6ECE9" transform="translate(139,99)"/>
<path d="M0 0 C0.66 0.33 1.32 0.66 2 1 C1.979 1.969 1.959 2.939 1.938 3.938 C1.644 6.875 1.644 6.875 3 8 C3.188 10.938 3.188 10.938 3 14 C1 16 1 16 -2 16.25 C-5 16 -5 16 -7 14 C-7 12.35 -7 10.7 -7 9 C-5.68 8.34 -4.36 7.68 -3 7 C-3.33 9.31 -3.66 11.62 -4 14 C-2.35 13.67 -0.7 13.34 1 13 C0.217 9.253 0.217 9.253 -1 7 C-0.718 4.66 -0.387 2.325 0 0 Z " fill="#F98D78" transform="translate(41,106)"/>
<path d="M0 0 C0.33 1.65 0.66 3.3 1 5 C0.01 5.33 -0.98 5.66 -2 6 C-2.33 8.64 -2.66 11.28 -3 14 C-3.33 14 -3.66 14 -4 14 C-4.144 12.701 -4.289 11.401 -4.438 10.062 C-4.549 6.25 -4.549 6.25 -6 5 C-6 3.35 -6 1.7 -6 0 C-4 -1 -4 -1 0 0 Z " fill="#F5E6E0" transform="translate(42,80)"/>
<path d="M0 0 C2.31 0 4.62 0 7 0 C6.34 1.32 5.68 2.64 5 4 C4.34 4 3.68 4 3 4 C3 4.66 3 5.32 3 6 C1.02 6.66 -0.96 7.32 -3 8 C-3.33 7.01 -3.66 6.02 -4 5 C-4.66 4.34 -5.32 3.68 -6 3 C-4.02 2.67 -2.04 2.34 0 2 C0 1.34 0 0.68 0 0 Z " fill="#F5E5E0" transform="translate(26,102)"/>
<path d="M0 0 C0.347 3.732 0.292 5.541 -1.75 8.75 C-4 11 -4 11 -8 13 C-5.706 0 -5.706 0 0 0 Z " fill="#F5EEEB" transform="translate(37,107)"/>
<path d="M0 0 C0.33 0 0.66 0 1 0 C1.982 4.053 2.082 7.839 2 12 C1.34 11.34 0.68 10.68 0 10 C-1.988 9.602 -3.989 9.262 -6 9 C-6 8.34 -6 7.68 -6 7 C-4.35 7 -2.7 7 -1 7 C-1 6.34 -1 5.68 -1 5 C-2.65 5 -4.3 5 -6 5 C-6 4.01 -6 3.02 -6 2 C-4.02 2 -2.04 2 0 2 C0 1.34 0 0.68 0 0 Z " fill="#F5E7E2" transform="translate(134,94)"/>
<path d="M0 0 C-0.99 0.495 -0.99 0.495 -2 1 C-2 4.63 -2 8.26 -2 12 C-2.33 12 -2.66 12 -3 12 C-3.33 10.35 -3.66 8.7 -4 7 C-4.33 7 -4.66 7 -5 7 C-5.33 5.35 -5.66 3.7 -6 2 C-8.64 1.67 -11.28 1.34 -14 1 C-14 4.63 -14 8.26 -14 12 C-14.33 12 -14.66 12 -15 12 C-15 8.04 -15 4.08 -15 0 C-9.706 -0.836 -5.274 -0.989 0 0 Z " fill="#F7B8AC" transform="translate(155,110)"/>
<path d="M0 0 C0.99 0 1.98 0 3 0 C3 3.3 3 6.6 3 10 C4.98 10 6.96 10 9 10 C9 10.66 9 11.32 9 12 C6.03 12 3.06 12 0 12 C0 8.04 0 4.08 0 0 Z " fill="#F95843" transform="translate(102,94)"/>
<path d="M0 0 C1.32 0.66 2.64 1.32 4 2 C2.61 4.78 0.813 4.875 -2 6 C-2.33 6.66 -2.66 7.32 -3 8 C-3.66 8 -4.32 8 -5 8 C-5 10.64 -5 13.28 -5 16 C-5.33 16 -5.66 16 -6 16 C-6 11.71 -6 7.42 -6 3 C-6.66 2.67 -7.32 2.34 -8 2 C-6 2 -4 2 -2 2 C-1.34 1.34 -0.68 0.68 0 0 Z " fill="#F6EAE5" transform="translate(153,90)"/>
<path d="M0 0 C1.32 0 2.64 0 4 0 C4 0.66 4 1.32 4 2 C4.99 2.33 5.98 2.66 7 3 C6.67 7.29 6.34 11.58 6 16 C5.67 16 5.34 16 5 16 C5 12.04 5 8.08 5 4 C4.01 4 3.02 4 2 4 C2 5.98 2 7.96 2 10 C0.68 8.68 -0.64 7.36 -2 6 C-1.34 4.68 -0.68 3.36 0 2 C0 1.34 0 0.68 0 0 Z " fill="#F5EEEA" transform="translate(84,90)"/>
<path d="M0 0 C1.98 0 3.96 0 6 0 C6.227 0.722 6.454 1.444 6.688 2.188 C8.248 5.532 10.303 7.516 13 10 C12.01 10 11.02 10 10 10 C9.422 9.381 8.845 8.763 8.25 8.125 C5.393 5.427 2.78 4.872 -1 4 C-0.67 2.68 -0.34 1.36 0 0 Z " fill="#F7B8AB" transform="translate(25,85)"/>
<path d="M0 0 C4.268 2.134 5.324 3.643 7 8 C8.32 8.66 9.64 9.32 11 10 C9.329 10.217 9.329 10.217 7.625 10.438 C4.179 10.784 4.179 10.784 2 12 C0.409 7.823 -0.213 4.468 0 0 Z " fill="#F4EEEA" transform="translate(42,107)"/>
<path d="M0 0 C2.703 2.872 3.948 4.31 4.25 8.312 C4.168 9.199 4.085 10.086 4 11 C-1.561 8.22 -1.561 8.22 -3.125 3.875 C-3.414 2.926 -3.703 1.978 -4 1 C-2.68 0.67 -1.36 0.34 0 0 Z " fill="#F5EDEA" transform="translate(33,82)"/>
<path d="M0 0 C1.32 0.33 2.64 0.66 4 1 C4.625 3.375 4.625 3.375 5 6 C4.34 6.66 3.68 7.32 3 8 C1.68 7.67 0.36 7.34 -1 7 C-1.625 4.625 -1.625 4.625 -2 2 C-1.34 1.34 -0.68 0.68 0 0 Z " fill="#F5EBE7" transform="translate(55,96)"/>
<path d="M0 0 C1.98 0 3.96 0 6 0 C6 1.98 6 3.96 6 6 C3.625 6.625 3.625 6.625 1 7 C0.34 6.34 -0.32 5.68 -1 5 C-0.625 2.375 -0.625 2.375 0 0 Z " fill="#F5E8E3" transform="translate(19,97)"/>
<path d="M0 0 C1.32 0 2.64 0 4 0 C4 1.98 4 3.96 4 6 C2.667 5.333 1.333 4.667 0 4 C0 2.68 0 1.36 0 0 Z M10 4 C12.97 4 15.94 4 19 4 C19 4.33 19 4.66 19 5 C16.36 5 13.72 5 11 5 C10.67 5.66 10.34 6.32 10 7 C10 6.01 10 5.02 10 4 Z M4 6 C9 6 9 6 12 7 C12 7.66 12 8.32 12 9 C10.02 9 8.04 9 6 9 C6 8.34 6 7.68 6 7 C5.34 6.67 4.68 6.34 4 6 Z " fill="#F4EFE9" transform="translate(88,85)"/>
<path d="M0 0 C4.29 0 8.58 0 13 0 C13 0.33 13 0.66 13 1 C8.71 1 4.42 1 0 1 C0 0.67 0 0.34 0 0 Z M-1 1 C-0.67 1.66 -0.34 2.32 0 3 C0.99 3 1.98 3 3 3 C3 4.32 3 5.64 3 7 C1.68 7 0.36 7 -1 7 C-1 6.34 -1 5.68 -1 5 C-2.98 5 -4.96 5 -7 5 C-7 4.34 -7 3.68 -7 3 C-5.02 3 -3.04 3 -1 3 C-1 2.34 -1 1.68 -1 1 Z " fill="#F5E3DD" transform="translate(96,110)"/>
<path d="M0 0 C0.33 0 0.66 0 1 0 C1 1.65 1 3.3 1 5 C0.67 5 0.34 5 0 5 C0 3.35 0 1.7 0 0 Z M-6 1 C-4.68 1 -3.36 1 -2 1 C-2 2.32 -2 3.64 -2 5 C-3.32 5 -4.64 5 -6 5 C-6 3.68 -6 2.36 -6 1 Z M0 6 C0.33 7.32 0.66 8.64 1 10 C0.01 10 -0.98 10 -2 10 C-2.33 9.34 -2.66 8.68 -3 8 C-3.99 7.67 -4.98 7.34 -6 7 C-6 7.99 -6 8.98 -6 10 C-6.99 9.67 -7.98 9.34 -9 9 C-8.34 9 -7.68 9 -7 9 C-7 8.01 -7 7.02 -7 6 C-2.25 4.875 -2.25 4.875 0 6 Z " fill="#F79282" transform="translate(182,96)"/>
<path d="M0 0 C1.65 0.99 3.3 1.98 5 3 C4.67 4.32 4.34 5.64 4 7 C3.34 6.34 2.68 5.68 2 5 C-0.899 4.757 -0.899 4.757 -4.125 4.875 C-5.769 4.902 -5.769 4.902 -7.445 4.93 C-8.288 4.953 -9.131 4.976 -10 5 C-10.33 4.34 -10.66 3.68 -11 3 C-7.143 2.707 -7.143 2.707 -3.285 2.414 C-2.154 2.209 -2.154 2.209 -1 2 C-0.67 1.34 -0.34 0.68 0 0 Z M-8 5 C-8 5.66 -8 6.32 -8 7 C-10.64 7 -13.28 7 -16 7 C-13 5 -13 5 -8 5 Z " fill="#F7F5F8" transform="translate(97,120)"/>
<path d="M0 0 C1.32 0.99 2.64 1.98 4 3 C3.67 4.32 3.34 5.64 3 7 C1.344 7.382 -0.325 7.714 -2 8 C-2.33 7.67 -2.66 7.34 -3 7 C-3 5.35 -3 3.7 -3 2 C-2.01 1.34 -1.02 0.68 0 0 Z " fill="#F4EFEB" transform="translate(39,113)"/>
<path d="M0 0 C2.007 0.287 4.009 0.619 6 1 C5.34 2.32 4.68 3.64 4 5 C4.66 5.66 5.32 6.32 6 7 C3.125 7.625 3.125 7.625 0 8 C-0.66 7.34 -1.32 6.68 -2 6 C-1.444 1.444 -1.444 1.444 0 0 Z " fill="#F5E5E0" transform="translate(154,96)"/>
<path d="M0 0 C0.99 0 1.98 0 3 0 C2.604 1.651 2.183 3.296 1.75 4.938 C1.402 6.312 1.402 6.312 1.047 7.715 C0.701 8.469 0.356 9.223 0 10 C-1.32 10.33 -2.64 10.66 -4 11 C-4 9.35 -4 7.7 -4 6 C-3.34 5.67 -2.68 5.34 -2 5 C-1.278 3.356 -0.606 1.689 0 0 Z " fill="#FA4C36" transform="translate(122,111)"/>
<path d="M0 0 C2.97 0 5.94 0 9 0 C9 0.66 9 1.32 9 2 C6.69 2 4.38 2 2 2 C2 3.32 2 4.64 2 6 C3.65 6 5.3 6 7 6 C7 6.33 7 6.66 7 7 C5.35 7 3.7 7 2 7 C2 8.32 2 9.64 2 11 C1.34 11 0.68 11 0 11 C0 7.37 0 3.74 0 0 Z " fill="#FA3F28" transform="translate(92,94)"/>
<path d="M0 0 C0.33 0 0.66 0 1 0 C1 3.96 1 7.92 1 12 C3.31 12.33 5.62 12.66 8 13 C8 13.66 8 14.32 8 15 C6.391 15.062 4.782 15.124 3.125 15.188 C1.768 15.24 1.768 15.24 0.383 15.293 C-0.797 15.148 -0.797 15.148 -2 15 C-2.66 14.01 -3.32 13.02 -4 12 C-2.68 12 -1.36 12 0 12 C0 8.04 0 4.08 0 0 Z " fill="#F1F7F2" transform="translate(90,94)"/>
<path d="M0 0 C1.675 0.286 3.344 0.618 5 1 C5 2.65 5 4.3 5 6 C3.344 6.382 1.675 6.714 0 7 C-0.33 6.67 -0.66 6.34 -1 6 C-1 1 -1 1 0 0 Z " fill="#F4F2EF" transform="translate(130,113)"/>
<path d="M0 0 C0.33 0.66 0.66 1.32 1 2 C1.66 2 2.32 2 3 2 C3.33 1.34 3.66 0.68 4 0 C4.66 0 5.32 0 6 0 C6 2.31 6 4.62 6 7 C4.02 7 2.04 7 0 7 C0 4.69 0 2.38 0 0 Z " fill="#F3F6F2" transform="translate(106,96)"/>
<path d="M0 0 C1 2 2 4 3 6 C2.01 6 1.02 6 0 6 C0 7.98 0 9.96 0 12 C-2.062 10.312 -2.062 10.312 -4 8 C-3.899 3.863 -3.025 3.025 0 0 Z " fill="#F4F0EC" transform="translate(144,88)"/>
<path d="M0 0 C0.763 0.309 1.526 0.619 2.312 0.938 C4.188 1.679 6.087 2.362 8 3 C7 5 7 5 3 7 C2.01 7.66 1.02 8.32 0 9 C0 7.02 0 5.04 0 3 C-0.99 2.67 -1.98 2.34 -3 2 C-2.01 2 -1.02 2 0 2 C0 1.34 0 0.68 0 0 Z " fill="#F7DDD8" transform="translate(155,107)"/>
<path d="M0 0 C0.99 0 1.98 0 3 0 C3 3.96 3 7.92 3 12 C2.01 12 1.02 12 0 12 C0 8.04 0 4.08 0 0 Z " fill="#F95A46" transform="translate(73,94)"/>
<path d="M0 0 C0.66 0 1.32 0 2 0 C2.66 0.99 3.32 1.98 4 3 C5.32 3 6.64 3 8 3 C8 3.66 8 4.32 8 5 C6.329 5.217 6.329 5.217 4.625 5.438 C1.179 5.784 1.179 5.784 -1 7 C-1 6.34 -1 5.68 -1 5 C-1.99 5.33 -2.98 5.66 -4 6 C-4 5.34 -4 4.68 -4 4 C-3.01 4 -2.02 4 -1 4 C-0.67 2.68 -0.34 1.36 0 0 Z M4 6 C6 7 6 7 6 7 Z " fill="#F7DED9" transform="translate(156,118)"/>
<path d="M0 0 C0.33 1.32 0.66 2.64 1 4 C-1 6 -1 6 -4.625 6.125 C-5.739 6.084 -6.852 6.043 -8 6 C-8 5.34 -8 4.68 -8 4 C-3.647 0 -3.647 0 0 0 Z " fill="#F4E8E2" transform="translate(53,92)"/>
<path d="M0 0 C3.3 0 6.6 0 10 0 C8.68 0.33 7.36 0.66 6 1 C6 4.3 6 7.6 6 11 C5.34 11 4.68 11 4 11 C4 8.03 4 5.06 4 2 C2.68 2 1.36 2 0 2 C0 1.34 0 0.68 0 0 Z " fill="#FA3D27" transform="translate(96,111)"/>
<path d="M0 0 C2.31 0 4.62 0 7 0 C7 0.66 7 1.32 7 2 C7.66 2.33 8.32 2.66 9 3 C8.67 3.99 8.34 4.98 8 6 C4 5 4 5 0 2 C0 1.34 0 0.68 0 0 Z " fill="#F5E8E3" transform="translate(45,102)"/>
<path d="M0 0 C0.99 0 1.98 0 3 0 C3 3.96 3 7.92 3 12 C2.01 12 1.02 12 0 12 C-0.928 7.667 -0.928 4.333 0 0 Z " fill="#F95744" transform="translate(144,94)"/>
<path d="M0 0 C0.99 0 1.98 0 3 0 C3.186 2.166 3.186 2.166 3.375 4.375 C3.513 8.917 3.513 8.917 6 11 C1.125 10.125 1.125 10.125 0 9 C-0.041 6 -0.042 3 0 0 Z " fill="#FA4F36" transform="translate(112,94)"/>
<path d="M0 0 C3.3 0 6.6 0 10 0 C10 0.66 10 1.32 10 2 C8.68 2 7.36 2 6 2 C6 4.97 6 7.94 6 11 C5.34 11 4.68 11 4 11 C4 7.7 4 4.4 4 1 C2.68 0.67 1.36 0.34 0 0 Z " fill="#FA3923" transform="translate(73,78)"/>
<path d="M0 0 C1.32 0 2.64 0 4 0 C4.33 1.98 4.66 3.96 5 6 C4.01 6 3.02 6 2 6 C1.34 4.02 0.68 2.04 0 0 Z M-4 1 C-2.68 1.33 -1.36 1.66 0 2 C-0.99 2 -1.98 2 -3 2 C-3 4.97 -3 7.94 -3 11 C-3.33 11 -3.66 11 -4 11 C-4 7.7 -4 4.4 -4 1 Z " fill="#F9705A" transform="translate(106,111)"/>
<path d="M0 0 C1.65 0.33 3.3 0.66 5 1 C3.35 2.65 1.7 4.3 0 6 C-0.99 5.34 -1.98 4.68 -3 4 C-1.68 3.67 -0.36 3.34 1 3 C0.67 2.01 0.34 1.02 0 0 Z M4 5 C4.33 5 4.66 5 5 5 C5 6.98 5 8.96 5 11 C4.01 10.34 3.02 9.68 2 9 C2.66 7.68 3.32 6.36 4 5 Z " fill="#F7E9E6" transform="translate(76,106)"/>
<path d="M0 0 C1.32 0 2.64 0 4 0 C4 2.64 4 5.28 4 8 C2.68 8 1.36 8 0 8 C0 5.36 0 2.72 0 0 Z " fill="#F5F4F1" transform="translate(115,95)"/>
<path d="M0 0 C1.32 0 2.64 0 4 0 C4 2.97 4 5.94 4 9 C3.67 8.34 3.34 7.68 3 7 C2.34 7 1.68 7 1 7 C0.67 7.66 0.34 8.32 0 9 C0 6.03 0 3.06 0 0 Z " fill="#F3F8F6" transform="translate(80,80)"/>
<path d="M0 0 C0.66 0 1.32 0 2 0 C2 1.98 2 3.96 2 6 C1.01 6.33 0.02 6.66 -1 7 C-1 6.34 -1 5.68 -1 5 C-2.65 5 -4.3 5 -6 5 C-6 4.01 -6 3.02 -6 2 C-4.02 2 -2.04 2 0 2 C0 1.34 0 0.68 0 0 Z " fill="#F4E5DE" transform="translate(171,94)"/>
<path d="M0 0 C0.66 0 1.32 0 2 0 C2 3.96 2 7.92 2 12 C0.68 11.34 -0.64 10.68 -2 10 C-2 9.01 -2 8.02 -2 7 C-1.34 7 -0.68 7 0 7 C0 4.69 0 2.38 0 0 Z " fill="#FA442F" transform="translate(87,94)"/>
<path d="M0 0 C0.33 0 0.66 0 1 0 C1 4.62 1 9.24 1 14 C-0.32 13.34 -1.64 12.68 -3 12 C-2.01 12 -1.02 12 0 12 C0 11.34 0 10.68 0 10 C-0.66 10 -1.32 10 -2 10 C-1.34 6.7 -0.68 3.4 0 0 Z " fill="#F2F7F3" transform="translate(151,111)"/>
<path d="M0 0 C0.536 0.66 1.072 1.32 1.625 2 C3.9 4.31 3.9 4.31 7.25 4.25 C8.157 4.168 9.065 4.085 10 4 C10 4.66 10 5.32 10 6 C3.375 7.25 3.375 7.25 0 5 C0 3.35 0 1.7 0 0 Z " fill="#FA4E36" transform="translate(150,99)"/>
<path d="M0 0 C0.33 0 0.66 0 1 0 C1.33 2.31 1.66 4.62 2 7 C2.66 7 3.32 7 4 7 C4 7.66 4 8.32 4 9 C5.32 9.33 6.64 9.66 8 10 C4 12 4 12 0.75 11.125 C-0.157 10.754 -1.065 10.382 -2 10 C-1.34 9.67 -0.68 9.34 0 9 C0 6.03 0 3.06 0 0 Z " fill="#F7D9D1" transform="translate(79,80)"/>
<path d="M0 0 C0.66 0.66 1.32 1.32 2 2 C1.01 2.33 0.02 2.66 -1 3 C-0.67 2.01 -0.34 1.02 0 0 Z M0 3 C0.66 3.66 1.32 4.32 2 5 C-2 8 -2 8 -5 8 C-3 4 -3 4 0 3 Z " fill="#F1F5EE" transform="translate(164,109)"/>
<path d="M0 0 C4 2 4 2 6 4 C6.66 4 7.32 4 8 4 C8 4.66 8 5.32 8 6 C6.35 6 4.7 6 3 6 C3 5.34 3 4.68 3 4 C2.01 4 1.02 4 0 4 C0 2.68 0 1.36 0 0 Z M-3 4 C0 5 0 5 0 5 Z " fill="#F7F2F1" transform="translate(95,103)"/>
</svg>