<svg xml:space="preserve" viewBox="34 278 1968 310" y="0px" x="0px" id="Layer_1" version="1.1" xmlns:xlink="http://www.w3.org/1999/xlink" xmlns="http://www.w3.org/2000/svg" style="max-height: 500px" width="1968" height="310">
<path d="M1150.000000,1001.000000   C766.666748,1001.000000 383.833466,1001.000000 1.000154,1001.000000   C1.000103,667.666809 1.000103,334.333588 1.000051,1.000192   C2.666538,1.000000 4.333076,1.000000 5.999615,1.000000   C670.999512,1.000000 1335.999390,1.000000 2000.999512,1.000000   C2000.999634,334.333038 2000.999634,667.666077 2000.999756,1000.999512   C1717.500000,1001.000000 1434.000000,1001.000000 1150.000000,1001.000000  M540.500061,289.831116   C531.398010,289.831116 522.295959,289.831116 512.713806,289.831116   C512.713806,322.759094 512.713806,355.152618 512.713806,387.495239   C483.820374,387.495239 455.418518,387.495239 426.670898,387.495239   C426.670898,354.879974 426.670898,322.598877 426.670898,290.147980   C395.444092,290.147980 364.566833,290.147980 333.577148,290.147980   C333.577148,382.220642 333.577148,473.976288 333.577148,565.829163   C364.705078,565.829163 395.585785,565.829163 426.928101,565.829163   C426.928101,531.911926 426.928101,498.331512 426.928101,464.855408   C455.789673,464.855408 484.186584,464.855408 513.026855,464.855408   C513.026855,498.775635 513.026855,532.351990 513.026855,565.926758   C544.221680,565.926758 574.968811,565.926758 605.757751,565.926758   C605.757751,473.794739 605.757751,381.905029 605.757751,289.831116   C584.133911,289.831116 562.817017,289.831116 540.500061,289.831116  M759.500061,289.832031   C723.422974,289.832031 687.345947,289.832031 651.265503,289.832031   C651.265503,382.253357 651.265503,474.008209 651.265503,565.945862   C727.875916,565.945862 804.265259,565.945862 880.688599,565.945862   C880.688599,542.520203 880.688599,519.318237 880.688599,495.765259   C834.591187,495.765259 788.838379,495.765259 743.154785,495.765259   C743.154785,483.653748 743.154785,471.898102 743.154785,459.630981   C782.128174,459.630981 820.845825,459.630981 859.525330,459.630981   C859.525330,437.044525 859.525330,414.975586 859.525330,392.559998   C820.615540,392.559998 782.007751,392.559998 743.148926,392.559998   C743.148926,381.630402 743.148926,371.047852 743.148926,359.904297   C787.425049,359.904297 831.623169,359.904297 875.697632,359.904297   C875.697632,336.253052 875.697632,313.162048 875.697632,289.832031   C837.113342,289.832031 798.806702,289.832031 759.500061,289.832031  M228.296326,399.500183   C228.296326,387.066772 228.296326,374.633362 228.296326,361.760254   C255.664581,361.760254 282.400330,361.760254 308.911926,361.760254   C308.911926,337.563416 308.911926,313.817719 308.911926,290.051025   C223.874878,290.051025 139.150223,290.051025 54.364754,290.051025   C54.364754,314.136353 54.364754,338.001831 54.364754,362.256378   C81.439552,362.256378 108.177917,362.256378 135.243073,362.256378   C135.243073,430.387939 135.243073,498.128326 135.243073,565.798950   C166.450638,565.798950 197.323654,565.798950 228.296326,565.798950   C228.296326,510.453857 228.296326,455.477051 228.296326,399.500183  M1438.899048,466.298615   C1437.761108,465.961731 1436.628540,465.356110 1435.484497,465.333862   C1430.155640,465.230194 1424.805176,465.558075 1419.499146,465.195435   C1415.795288,464.942261 1414.341187,466.345825 1413.252686,469.741241   C1405.950317,492.520233 1398.435425,515.231140 1390.982788,537.961975   C1390.511108,539.400574 1389.985474,540.821533 1389.033569,543.539490   C1380.291016,516.518433 1371.994873,490.877258 1363.715454,465.287872   C1357.288086,465.287872 1351.445068,465.553650 1345.640381,465.197479   C1341.547119,464.946289 1339.621582,466.173004 1338.296631,470.262054   C1331.075928,492.544800 1323.506958,514.714661 1316.055054,536.922485   C1315.524414,538.504089 1314.971313,540.078247 1313.971924,542.983337   C1305.299316,516.029785 1297.129395,490.638611 1289.057983,465.553345   C1280.028931,465.553345 1271.605103,465.553345 1263.221313,465.553345   C1263.124146,466.135681 1262.946533,466.495148 1263.035645,466.767426   C1274.704590,502.446289 1286.379150,538.123413 1298.156860,573.766357   C1298.466553,574.703369 1299.897827,575.887390 1300.826782,575.905579   C1309.260742,576.071167 1317.699341,576.002747 1326.142578,576.002747   C1334.526611,551.067871 1342.744873,526.625671 1351.312622,501.144226   C1359.662354,526.820740 1367.614502,551.274902 1375.570068,575.739441   C1384.913574,575.739441 1393.988037,575.739441 1403.193726,575.739441   C1415.103882,539.401855 1426.948486,503.264374 1438.899048,466.298615  M1092.629150,359.500244   C1092.629150,338.229919 1092.629150,316.959625 1092.629150,295.701508   C1083.802124,295.701508 1075.600952,295.701508 1066.854736,295.701508   C1066.854736,317.773590 1066.854736,339.431763 1066.854736,361.876617   C1064.843018,359.475677 1063.440430,357.834686 1062.073242,356.164978   C1046.457031,337.095642 1030.865234,318.006348 1015.196777,298.980194   C1014.000366,297.527405 1012.330139,295.558228 1010.779175,295.462280   C1004.355286,295.064880 997.892578,295.295532 991.281677,295.295532   C991.281677,332.419159 991.281677,368.992889 991.281677,405.706055   C999.688538,405.706055 1007.887207,405.706055 1016.744568,405.706055   C1016.744568,383.782593 1016.744568,362.155396 1016.744568,339.466156   C1018.504578,341.525238 1019.473145,342.620911 1020.401306,343.749786   C1036.584106,363.431305 1052.745850,383.130402 1068.978516,402.770782   C1070.054688,404.072937 1071.620728,405.781616 1073.033936,405.854797   C1079.444946,406.187073 1085.882812,406.000244 1092.629150,406.000244   C1092.629150,390.436432 1092.629150,375.468353 1092.629150,359.500244  M1596.474365,331.006256   C1587.622314,320.180359 1578.800903,309.328918 1569.878296,298.561493   C1568.784912,297.242126 1567.194336,295.516785 1565.757202,295.441101   C1559.329712,295.102661 1552.874390,295.293945 1546.274658,295.293945   C1546.274658,332.421967 1546.274658,368.987061 1546.274658,405.719025   C1554.674561,405.719025 1562.873657,405.719025 1571.714355,405.719025   C1571.714355,383.806091 1571.714355,362.176483 1571.714355,339.446106   C1573.595703,341.629608 1574.675659,342.832764 1575.701172,344.080780   C1591.872314,363.760773 1608.022095,383.458374 1624.237671,403.101807   C1625.212280,404.282440 1626.663574,405.810364 1627.950928,405.867249   C1634.375122,406.151062 1640.818726,405.996979 1647.361328,405.996979   C1647.361328,368.912048 1647.361328,332.350708 1647.361328,295.650085   C1638.888306,295.650085 1630.687500,295.650085 1621.965820,295.650085   C1621.965820,317.681488 1621.965820,339.351501 1621.965820,362.119781   C1613.120361,351.313507 1605.029663,341.429291 1596.474365,331.006256  M985.483826,494.004272   C978.414673,485.373260 971.379883,476.713623 964.236511,468.144440   C963.253723,466.965515 961.765015,465.482788 960.454468,465.425476   C954.027405,465.144440 947.581360,465.298004 941.163635,465.298004   C941.163635,502.507324 941.163635,539.088562 941.163635,575.646118   C949.614258,575.646118 957.822632,575.646118 966.388855,575.646118   C966.388855,553.580872 966.388855,531.871094 966.388855,509.179718   C968.382996,511.567474 969.753967,513.185059 971.099365,514.823608   C986.949707,534.127747 1002.779968,553.448486 1018.679565,572.711914   C1019.761292,574.022522 1021.311218,575.771545 1022.720520,575.845337   C1029.149292,576.182190 1035.605591,575.993225 1041.969971,575.993225   C1041.969971,538.875671 1041.969971,502.300476 1041.969971,465.535339   C1033.615967,465.535339 1025.537476,465.535339 1016.953857,465.535339   C1016.953857,487.620209 1016.953857,509.469086 1016.953857,532.423950   C1006.119263,519.188538 996.032837,506.867188 985.483826,494.004272  M1451.769531,503.263123   C1447.932983,515.934692 1448.147705,528.532654 1452.730469,540.959778   C1461.495239,564.727051 1484.914429,578.999023 1513.085083,577.864136   C1550.759155,576.346313 1575.902832,545.255676 1569.032227,508.684387   C1564.822266,486.275787 1546.627197,469.245972 1521.810303,464.487030   C1490.952881,458.569702 1462.183472,474.220001 1451.769531,503.263123  M1666.014648,545.423096   C1664.927734,543.820679 1663.840820,542.218262 1662.738037,540.592346   C1682.614624,529.377014 1690.127075,511.488342 1683.017822,491.765015   C1676.909180,474.817505 1663.175659,467.513672 1646.445190,466.154449   C1631.385132,464.930908 1616.179199,465.494507 1601.037231,465.293915   C1597.263672,465.243927 1593.488770,465.286438 1589.526123,465.286438   C1589.526123,502.444946 1589.526123,538.993652 1589.526123,575.678223   C1598.110962,575.678223 1606.472412,575.678223 1615.124512,575.678223   C1615.124512,565.419006 1615.124512,555.486084 1615.124512,545.123657   C1621.858398,545.123657 1628.313599,545.298340 1634.751831,545.044617   C1637.652100,544.930359 1639.240967,546.060120 1640.762939,548.316223   C1646.341919,556.585999 1652.029297,564.784851 1657.826416,572.903015   C1658.764526,574.216614 1660.438599,575.820862 1661.820435,575.867493   C1670.055786,576.145142 1678.305298,576.004822 1687.345093,576.004822   C1680.053589,565.556030 1673.238403,555.789856 1666.014648,545.423096  M1900.669922,295.291748   C1899.102295,295.291748 1897.534668,295.291748 1895.967773,295.291748   C1895.967773,332.616364 1895.967773,369.156189 1895.967773,405.716858   C1904.475098,405.716858 1912.710327,405.716858 1921.430542,405.716858   C1921.430542,395.379456 1921.430542,385.322357 1921.430542,375.119751   C1928.575439,375.119751 1935.237671,374.947601 1941.879028,375.243866   C1943.489258,375.315674 1945.547241,376.557587 1946.518921,377.899170   C1952.467407,386.113373 1958.140869,394.526276 1963.967041,402.830017   C1964.784912,403.995636 1965.912354,405.800903 1966.937622,405.829468   C1975.594238,406.070404 1984.260376,405.966888 1993.557007,405.966888   C1984.981079,393.654755 1977.004883,382.203552 1969.087280,370.836426   C1969.288208,370.502960 1969.332031,370.334290 1969.438965,370.268921   C1970.004272,369.923126 1970.573853,369.580658 1971.162842,369.277557   C1985.592041,361.850159 1991.985352,349.739502 1991.440308,333.834167   C1990.875122,317.338989 1982.688354,305.865509 1967.448486,299.773285   C1962.581177,297.827545 1957.240112,296.258362 1952.056763,296.060242   C1935.265991,295.418457 1918.447998,295.493073 1900.669922,295.291748  M1710.799561,465.290253   C1709.206543,465.368896 1707.613525,465.447540 1705.883301,465.532959   C1705.883301,502.507050 1705.883301,539.097961 1705.883301,575.732544   C1714.313477,575.732544 1722.552490,575.732544 1731.037476,575.732544   C1731.037476,567.495789 1730.999512,559.527527 1731.072388,551.560364   C1731.085449,550.131531 1731.072754,548.275452 1731.896362,547.352295   C1736.374512,542.332458 1741.110840,537.543152 1745.907593,532.518127   C1757.200073,546.375305 1767.998779,559.682495 1778.895264,572.909119   C1779.954468,574.194946 1781.594604,575.822021 1783.007324,575.863647   C1792.084839,576.130920 1801.174194,576.000244 1811.155640,576.000244   C1794.647339,555.113281 1778.706909,534.944702 1762.684937,514.673096   C1777.856079,498.327545 1792.827026,482.197540 1808.519409,465.290375   C1799.594116,465.290375 1791.959839,465.035828 1784.360107,465.436340   C1781.892822,465.566437 1778.901611,466.812622 1777.195312,468.565552   C1764.187012,481.929352 1751.438232,495.545776 1738.606567,509.081451   C1736.368896,511.441803 1734.120605,513.792114 1731.077637,516.986389   C1731.077637,499.133331 1731.077637,482.438843 1731.077637,465.290283   C1724.314209,465.290283 1718.027344,465.290283 1710.799561,465.290253  M1823.544678,315.944489   C1839.979980,315.944489 1856.415161,315.944489 1872.863037,315.944489   C1872.863037,308.829010 1872.863037,302.254669 1872.863037,295.632111   C1845.053101,295.632111 1817.529175,295.632111 1789.910889,295.632111   C1789.910889,332.570190 1789.910889,369.163666 1789.910889,405.760681   C1818.387573,405.760681 1846.645264,405.760681 1874.915039,405.760681   C1874.915039,398.944763 1874.915039,392.376617 1874.915039,385.383820   C1854.895630,385.383820 1835.155640,385.383820 1815.286621,385.383820   C1815.286621,376.708282 1815.286621,368.465424 1815.286621,359.929321   C1832.309082,359.929321 1849.087524,359.929321 1866.115234,359.929321   C1866.115234,353.199371 1866.115234,346.762573 1866.115234,339.850647   C1849.083984,339.850647 1832.187256,339.850647 1815.332275,339.850647   C1815.332275,331.637360 1815.332275,323.900513 1815.332275,315.944489   C1817.936401,315.944489 1820.249023,315.944489 1823.544678,315.944489  M1132.488525,529.904602   C1136.600098,529.904602 1140.711548,529.904602 1144.804688,529.904602   C1144.804688,522.949097 1144.804688,516.554932 1144.804688,509.817688   C1127.733154,509.817688 1110.969971,509.817688 1094.138306,509.817688   C1094.138306,501.730743 1094.138306,493.996948 1094.138306,485.861877   C1113.471558,485.861877 1132.551758,485.861877 1151.749023,485.861877   C1151.749023,478.878204 1151.749023,472.300232 1151.749023,465.554382   C1123.937134,465.554382 1096.366455,465.554382 1068.548828,465.554382   C1068.548828,502.403809 1068.548828,538.980347 1068.548828,575.689453   C1097.125732,575.689453 1125.499390,575.689453 1153.675293,575.689453   C1153.675293,568.800110 1153.675293,562.236694 1153.675293,555.227661   C1133.601196,555.227661 1113.874146,555.227661 1094.209473,555.227661   C1094.209473,546.537109 1094.209473,538.306946 1094.209473,529.904602   C1106.855225,529.904602 1119.173218,529.904602 1132.488525,529.904602  M1523.292236,296.269897   C1521.763428,295.941864 1520.235352,295.331635 1518.705688,295.327972   C1493.877441,295.268433 1469.049194,295.282898 1444.220825,295.294220   C1442.927979,295.294800 1441.635254,295.417084 1440.256348,295.487061   C1440.256348,332.459503 1440.256348,369.154968 1440.256348,405.673401   C1468.820312,405.673401 1497.047607,405.673401 1525.156494,405.673401   C1525.156494,398.773010 1525.156494,392.212128 1525.156494,385.170776   C1505.025879,385.170776 1485.291016,385.170776 1465.454834,385.170776   C1465.454834,376.574707 1465.454834,368.479492 1465.454834,359.862122   C1482.557983,359.862122 1499.450195,359.862122 1516.416016,359.862122   C1516.416016,352.942902 1516.416016,346.551086 1516.416016,339.852844   C1499.304321,339.852844 1482.520996,339.852844 1465.488281,339.852844   C1465.488281,331.809387 1465.488281,324.080078 1465.488281,315.954132   C1484.814209,315.954132 1503.904541,315.954132 1523.428589,315.954132   C1523.428589,309.429138 1523.428589,303.293732 1523.292236,296.269897  M1342.956665,373.237946   C1342.242676,370.685333 1341.044556,368.159393 1340.902100,365.575317   C1340.407715,356.609436 1340.128906,347.624725 1340.047363,338.644653   C1339.917725,324.353027 1340.012695,310.059387 1340.012695,295.532654   C1331.373169,295.532654 1323.140503,295.532654 1313.608398,295.532654   C1314.402954,321.375885 1313.937988,347.061859 1316.402710,372.463562   C1318.125244,390.218506 1330.444214,401.578888 1347.928833,405.783173   C1354.943970,407.470032 1362.492065,408.067444 1369.701538,407.618469   C1396.540771,405.946991 1412.647949,390.505035 1414.067505,363.707886   C1415.247070,341.441986 1414.515259,319.074707 1414.597168,296.752258   C1414.598755,296.325867 1414.192505,295.897980 1414.044922,295.606079   C1405.798462,295.606079 1397.707397,295.606079 1389.248779,295.606079   C1389.248779,300.060120 1389.264771,304.197662 1389.246216,308.335114   C1389.165039,326.496246 1389.427124,344.668243 1388.864746,362.814606   C1388.476929,375.328491 1382.049072,382.897430 1371.403564,385.361877   C1359.046143,388.222656 1349.110840,384.207611 1342.956665,373.237946  M1692.738770,353.338867   C1692.153564,331.571960 1704.369629,317.075623 1725.108521,315.385986   C1737.302002,314.392548 1747.517944,318.927002 1755.840942,328.206146   C1761.410156,323.043671 1766.730591,318.111694 1772.022583,313.206146   C1757.703979,295.078857 1728.608887,288.365143 1704.024292,297.221375   C1680.080566,305.846771 1665.960449,327.171722 1666.815918,353.415009   C1667.622681,378.158905 1683.431152,398.161163 1707.803467,405.275635   C1732.074829,412.360657 1760.185425,404.790680 1771.882446,387.838654   C1766.561890,382.925842 1761.215332,377.988983 1755.833618,373.019623   C1744.166260,385.741882 1730.238525,389.241638 1714.649902,383.731445   C1701.139648,378.955872 1694.092896,368.536987 1692.738770,353.338867  M1192.428711,295.286469   C1168.002808,295.286469 1143.576904,295.286469 1119.158447,295.286469   C1119.158447,332.506714 1119.158447,369.088867 1119.158447,405.755920   C1127.630615,405.755920 1135.863281,405.755920 1144.496338,405.755920   C1144.496338,392.421936 1144.496338,379.332184 1144.496338,365.628845   C1161.761841,365.628845 1178.635254,365.628845 1195.377686,365.628845   C1195.377686,358.426575 1195.377686,351.852173 1195.377686,344.930420   C1178.231934,344.930420 1161.452271,344.930420 1144.683594,344.930420   C1144.683594,335.145935 1144.683594,325.725922 1144.683594,315.841309   C1163.977661,315.841309 1183.039307,315.841309 1202.134644,315.841309   C1202.134644,308.781189 1202.134644,302.192566 1202.134644,295.286469   C1199.019043,295.286469 1196.210815,295.286469 1192.428711,295.286469  M1223.088013,555.499878   C1223.088013,532.441162 1223.088013,509.382416 1223.088013,485.981598   C1235.314453,485.981598 1246.745972,485.981598 1258.175537,485.981598   C1258.175537,478.908966 1258.175537,472.195465 1258.175537,465.551514   C1226.013062,465.551514 1194.256348,465.551514 1162.400635,465.551514   C1162.400635,472.537964 1162.400635,479.256836 1162.400635,486.299255   C1174.171143,486.299255 1185.623047,486.299255 1197.594849,486.299255   C1197.594849,516.345398 1197.594849,546.066833 1197.594849,575.715820   C1206.380005,575.715820 1214.633911,575.715820 1223.088013,575.715820   C1223.088013,569.118408 1223.088013,562.809021 1223.088013,555.499878  M1245.437134,335.500366   C1245.437134,322.217407 1245.437134,308.934448 1245.437134,295.618896   C1236.612915,295.618896 1228.381226,295.618896 1220.180420,295.618896   C1220.180420,332.529907 1220.180420,369.114716 1220.180420,405.755920   C1247.172119,405.755920 1273.908936,405.755920 1300.655396,405.755920   C1300.655396,398.782440 1300.655396,392.060028 1300.655396,384.910950   C1282.096924,384.910950 1263.850220,384.910950 1245.437134,384.910950   C1245.437134,368.484344 1245.437134,352.492371 1245.437134,335.500366  M964.989502,348.500000   C964.989502,330.900665 964.989502,313.301331 964.989502,295.558167   C956.251770,295.558167 948.019531,295.558167 939.676453,295.558167   C939.676453,332.499390 939.676453,369.162781 939.676453,405.703003   C948.302551,405.703003 956.550293,405.703003 964.989502,405.703003   C964.989502,386.764893 964.989502,368.132446 964.989502,348.500000  z" stroke="none" opacity="1.000000" fill="#FFFFFF"/>
<path d="M541.000122,289.831116   C562.817017,289.831116 584.133911,289.831116 605.757751,289.831116   C605.757751,381.905029 605.757751,473.794739 605.757751,565.926758   C574.968811,565.926758 544.221680,565.926758 513.026855,565.926758   C513.026855,532.351990 513.026855,498.775635 513.026855,464.855408   C484.186584,464.855408 455.789673,464.855408 426.928101,464.855408   C426.928101,498.331512 426.928101,531.911926 426.928101,565.829163   C395.585785,565.829163 364.705078,565.829163 333.577148,565.829163   C333.577148,473.976288 333.577148,382.220642 333.577148,290.147980   C364.566833,290.147980 395.444092,290.147980 426.670898,290.147980   C426.670898,322.598877 426.670898,354.879974 426.670898,387.495239   C455.418518,387.495239 483.820374,387.495239 512.713806,387.495239   C512.713806,355.152618 512.713806,322.759094 512.713806,289.831116   C522.295959,289.831116 531.398010,289.831116 541.000122,289.831116  z" stroke="none" opacity="1.000000" fill="#010101"/>
<path d="M760.000122,289.832031   C798.806702,289.832031 837.113342,289.832031 875.697632,289.832031   C875.697632,313.162048 875.697632,336.253052 875.697632,359.904297   C831.623169,359.904297 787.425049,359.904297 743.148926,359.904297   C743.148926,371.047852 743.148926,381.630402 743.148926,392.559998   C782.007751,392.559998 820.615540,392.559998 859.525330,392.559998   C859.525330,414.975586 859.525330,437.044525 859.525330,459.630981   C820.845825,459.630981 782.128174,459.630981 743.154785,459.630981   C743.154785,471.898102 743.154785,483.653748 743.154785,495.765259   C788.838379,495.765259 834.591187,495.765259 880.688599,495.765259   C880.688599,519.318237 880.688599,542.520203 880.688599,565.945862   C804.265259,565.945862 727.875916,565.945862 651.265503,565.945862   C651.265503,474.008209 651.265503,382.253357 651.265503,289.832031   C687.345947,289.832031 723.422974,289.832031 760.000122,289.832031  z" stroke="none" opacity="1.000000" fill="#000000"/>
<path d="M228.296326,400.000214   C228.296326,455.477051 228.296326,510.453857 228.296326,565.798950   C197.323654,565.798950 166.450638,565.798950 135.243073,565.798950   C135.243073,498.128326 135.243073,430.387939 135.243073,362.256378   C108.177917,362.256378 81.439552,362.256378 54.364754,362.256378   C54.364754,338.001831 54.364754,314.136353 54.364754,290.051025   C139.150223,290.051025 223.874878,290.051025 308.911926,290.051025   C308.911926,313.817719 308.911926,337.563416 308.911926,361.760254   C282.400330,361.760254 255.664581,361.760254 228.296326,361.760254   C228.296326,374.633362 228.296326,387.066772 228.296326,400.000214  z" stroke="none" opacity="1.000000" fill="#000000"/>
<path d="M1438.845947,466.712769   C1426.948486,503.264374 1415.103882,539.401855 1403.193726,575.739441   C1393.988037,575.739441 1384.913574,575.739441 1375.570068,575.739441   C1367.614502,551.274902 1359.662354,526.820740 1351.312622,501.144226   C1342.744873,526.625671 1334.526611,551.067871 1326.142578,576.002747   C1317.699341,576.002747 1309.260742,576.071167 1300.826782,575.905579   C1299.897827,575.887390 1298.466553,574.703369 1298.156860,573.766357   C1286.379150,538.123413 1274.704590,502.446289 1263.035645,466.767426   C1262.946533,466.495148 1263.124146,466.135681 1263.221313,465.553345   C1271.605103,465.553345 1280.028931,465.553345 1289.057983,465.553345   C1297.129395,490.638611 1305.299316,516.029785 1313.971924,542.983337   C1314.971313,540.078247 1315.524414,538.504089 1316.055054,536.922485   C1323.506958,514.714661 1331.075928,492.544800 1338.296631,470.262054   C1339.621582,466.173004 1341.547119,464.946289 1345.640381,465.197479   C1351.445068,465.553650 1357.288086,465.287872 1363.715454,465.287872   C1371.994873,490.877258 1380.291016,516.518433 1389.033569,543.539490   C1389.985474,540.821533 1390.511108,539.400574 1390.982788,537.961975   C1398.435425,515.231140 1405.950317,492.520233 1413.252686,469.741241   C1414.341187,466.345825 1415.795288,464.942261 1419.499146,465.195435   C1424.805176,465.558075 1430.155640,465.230194 1435.484497,465.333862   C1436.628540,465.356110 1437.761108,465.961731 1438.845947,466.712769  z" stroke="none" opacity="1.000000" fill="#030303"/>
<path d="M1092.629150,360.000244   C1092.629150,375.468353 1092.629150,390.436432 1092.629150,406.000244   C1085.882812,406.000244 1079.444946,406.187073 1073.033936,405.854797   C1071.620728,405.781616 1070.054688,404.072937 1068.978516,402.770782   C1052.745850,383.130402 1036.584106,363.431305 1020.401306,343.749786   C1019.473145,342.620911 1018.504578,341.525238 1016.744568,339.466156   C1016.744568,362.155396 1016.744568,383.782593 1016.744568,405.706055   C1007.887207,405.706055 999.688538,405.706055 991.281677,405.706055   C991.281677,368.992889 991.281677,332.419159 991.281677,295.295532   C997.892578,295.295532 1004.355286,295.064880 1010.779175,295.462280   C1012.330139,295.558228 1014.000366,297.527405 1015.196777,298.980194   C1030.865234,318.006348 1046.457031,337.095642 1062.073242,356.164978   C1063.440430,357.834686 1064.843018,359.475677 1066.854736,361.876617   C1066.854736,339.431763 1066.854736,317.773590 1066.854736,295.701508   C1075.600952,295.701508 1083.802124,295.701508 1092.629150,295.701508   C1092.629150,316.959625 1092.629150,338.229919 1092.629150,360.000244  z" stroke="none" opacity="1.000000" fill="#040404"/>
<path d="M1596.706665,331.275665   C1605.029663,341.429291 1613.120361,351.313507 1621.965820,362.119781   C1621.965820,339.351501 1621.965820,317.681488 1621.965820,295.650085   C1630.687500,295.650085 1638.888306,295.650085 1647.361328,295.650085   C1647.361328,332.350708 1647.361328,368.912048 1647.361328,405.996979   C1640.818726,405.996979 1634.375122,406.151062 1627.950928,405.867249   C1626.663574,405.810364 1625.212280,404.282440 1624.237671,403.101807   C1608.022095,383.458374 1591.872314,363.760773 1575.701172,344.080780   C1574.675659,342.832764 1573.595703,341.629608 1571.714355,339.446106   C1571.714355,362.176483 1571.714355,383.806091 1571.714355,405.719025   C1562.873657,405.719025 1554.674561,405.719025 1546.274658,405.719025   C1546.274658,368.987061 1546.274658,332.421967 1546.274658,295.293945   C1552.874390,295.293945 1559.329712,295.102661 1565.757202,295.441101   C1567.194336,295.516785 1568.784912,297.242126 1569.878296,298.561493   C1578.800903,309.328918 1587.622314,320.180359 1596.706665,331.275665  z" stroke="none" opacity="1.000000" fill="#040404"/>
<path d="M985.715149,494.275055   C996.032837,506.867188 1006.119263,519.188538 1016.953857,532.423950   C1016.953857,509.469086 1016.953857,487.620209 1016.953857,465.535339   C1025.537476,465.535339 1033.615967,465.535339 1041.969971,465.535339   C1041.969971,502.300476 1041.969971,538.875671 1041.969971,575.993225   C1035.605591,575.993225 1029.149292,576.182190 1022.720520,575.845337   C1021.311218,575.771545 1019.761292,574.022522 1018.679565,572.711914   C1002.779968,553.448486 986.949707,534.127747 971.099365,514.823608   C969.753967,513.185059 968.382996,511.567474 966.388855,509.179718   C966.388855,531.871094 966.388855,553.580872 966.388855,575.646118   C957.822632,575.646118 949.614258,575.646118 941.163635,575.646118   C941.163635,539.088562 941.163635,502.507324 941.163635,465.298004   C947.581360,465.298004 954.027405,465.144440 960.454468,465.425476   C961.765015,465.482788 963.253723,466.965515 964.236511,468.144440   C971.379883,476.713623 978.414673,485.373260 985.715149,494.275055  z" stroke="none" opacity="1.000000" fill="#010101"/>
<path d="M1451.863159,502.874847   C1462.183472,474.220001 1490.952881,458.569702 1521.810303,464.487030   C1546.627197,469.245972 1564.822266,486.275787 1569.032227,508.684387   C1575.902832,545.255676 1550.759155,576.346313 1513.085083,577.864136   C1484.914429,578.999023 1461.495239,564.727051 1452.730469,540.959778   C1448.147705,528.532654 1447.932983,515.934692 1451.863159,502.874847  M1537.617798,498.963806   C1525.642578,484.430756 1505.804199,480.929474 1490.662354,490.676697   C1475.952271,500.145905 1470.640991,520.707825 1478.652466,537.170837   C1486.329346,552.946167 1504.687744,560.110291 1521.928345,554.058716   C1543.184326,546.597717 1551.008423,520.092957 1537.617798,498.963806  z" stroke="none" opacity="1.000000" fill="#030303"/>
<path d="M1666.218994,545.723389   C1673.238403,555.789856 1680.053589,565.556030 1687.345093,576.004822   C1678.305298,576.004822 1670.055786,576.145142 1661.820435,575.867493   C1660.438599,575.820862 1658.764526,574.216614 1657.826416,572.903015   C1652.029297,564.784851 1646.341919,556.585999 1640.762939,548.316223   C1639.240967,546.060120 1637.652100,544.930359 1634.751831,545.044617   C1628.313599,545.298340 1621.858398,545.123657 1615.124512,545.123657   C1615.124512,555.486084 1615.124512,565.419006 1615.124512,575.678223   C1606.472412,575.678223 1598.110962,575.678223 1589.526123,575.678223   C1589.526123,538.993652 1589.526123,502.444946 1589.526123,465.286438   C1593.488770,465.286438 1597.263672,465.243927 1601.037231,465.293915   C1616.179199,465.494507 1631.385132,464.930908 1646.445190,466.154449   C1663.175659,467.513672 1676.909180,474.817505 1683.017822,491.765015   C1690.127075,511.488342 1682.614624,529.377014 1662.738037,540.592346   C1663.840820,542.218262 1664.927734,543.820679 1666.218994,545.723389  M1659.069580,509.036224   C1659.909790,496.294495 1655.127319,488.462280 1644.021240,487.230743   C1634.572388,486.182953 1624.915161,487.014343 1615.348389,487.014343   C1615.348389,499.351257 1615.348389,512.031067 1615.348389,524.817444   C1623.184448,524.817444 1630.663452,525.065552 1638.119751,524.760742   C1650.018555,524.274292 1656.144775,519.733032 1659.069580,509.036224  z" stroke="none" opacity="1.000000" fill="#030303"/>
<path d="M1901.155151,295.291748   C1918.447998,295.493073 1935.265991,295.418457 1952.056763,296.060242   C1957.240112,296.258362 1962.581177,297.827545 1967.448486,299.773285   C1982.688354,305.865509 1990.875122,317.338989 1991.440308,333.834167   C1991.985352,349.739502 1985.592041,361.850159 1971.162842,369.277557   C1970.573853,369.580658 1970.004272,369.923126 1969.438965,370.268921   C1969.332031,370.334290 1969.288208,370.502960 1969.087280,370.836426   C1977.004883,382.203552 1984.981079,393.654755 1993.557007,405.966888   C1984.260376,405.966888 1975.594238,406.070404 1966.937622,405.829468   C1965.912354,405.800903 1964.784912,403.995636 1963.967041,402.830017   C1958.140869,394.526276 1952.467407,386.113373 1946.518921,377.899170   C1945.547241,376.557587 1943.489258,375.315674 1941.879028,375.243866   C1935.237671,374.947601 1928.575439,375.119751 1921.430542,375.119751   C1921.430542,385.322357 1921.430542,395.379456 1921.430542,405.716858   C1912.710327,405.716858 1904.475098,405.716858 1895.967773,405.716858   C1895.967773,369.156189 1895.967773,332.616364 1895.967773,295.291748   C1897.534668,295.291748 1899.102295,295.291748 1901.155151,295.291748  M1938.438721,316.146332   C1932.829468,316.146332 1927.220337,316.146332 1921.492920,316.146332   C1921.492920,329.298798 1921.492920,341.971283 1921.492920,355.274109   C1931.308838,354.845215 1940.815552,355.017212 1950.158081,353.861267   C1960.078003,352.633942 1965.648071,345.373627 1965.686035,335.564575   C1965.724976,325.506653 1960.014038,318.695923 1949.825317,316.994049   C1946.403076,316.422394 1942.886719,316.413025 1938.438721,316.146332  z" stroke="none" opacity="1.000000" fill="#020202"/>
<path d="M1711.270020,465.290283   C1718.027344,465.290283 1724.314209,465.290283 1731.077637,465.290283   C1731.077637,482.438843 1731.077637,499.133331 1731.077637,516.986389   C1734.120605,513.792114 1736.368896,511.441803 1738.606567,509.081451   C1751.438232,495.545776 1764.187012,481.929352 1777.195312,468.565552   C1778.901611,466.812622 1781.892822,465.566437 1784.360107,465.436340   C1791.959839,465.035828 1799.594116,465.290375 1808.519409,465.290375   C1792.827026,482.197540 1777.856079,498.327545 1762.684937,514.673096   C1778.706909,534.944702 1794.647339,555.113281 1811.155640,576.000244   C1801.174194,576.000244 1792.084839,576.130920 1783.007324,575.863647   C1781.594604,575.822021 1779.954468,574.194946 1778.895264,572.909119   C1767.998779,559.682495 1757.200073,546.375305 1745.907593,532.518127   C1741.110840,537.543152 1736.374512,542.332458 1731.896362,547.352295   C1731.072754,548.275452 1731.085449,550.131531 1731.072388,551.560364   C1730.999512,559.527527 1731.037476,567.495789 1731.037476,575.732544   C1722.552490,575.732544 1714.313477,575.732544 1705.883301,575.732544   C1705.883301,539.097961 1705.883301,502.507050 1705.883301,465.532959   C1707.613525,465.447540 1709.206543,465.368896 1711.270020,465.290283  z" stroke="none" opacity="1.000000" fill="#020202"/>
<path d="M1823.053101,315.944489   C1820.249023,315.944489 1817.936401,315.944489 1815.332275,315.944489   C1815.332275,323.900513 1815.332275,331.637360 1815.332275,339.850647   C1832.187256,339.850647 1849.083984,339.850647 1866.115234,339.850647   C1866.115234,346.762573 1866.115234,353.199371 1866.115234,359.929321   C1849.087524,359.929321 1832.309082,359.929321 1815.286621,359.929321   C1815.286621,368.465424 1815.286621,376.708282 1815.286621,385.383820   C1835.155640,385.383820 1854.895630,385.383820 1874.915039,385.383820   C1874.915039,392.376617 1874.915039,398.944763 1874.915039,405.760681   C1846.645264,405.760681 1818.387573,405.760681 1789.910889,405.760681   C1789.910889,369.163666 1789.910889,332.570190 1789.910889,295.632111   C1817.529175,295.632111 1845.053101,295.632111 1872.863037,295.632111   C1872.863037,302.254669 1872.863037,308.829010 1872.863037,315.944489   C1856.415161,315.944489 1839.979980,315.944489 1823.053101,315.944489  z" stroke="none" opacity="1.000000" fill="#030303"/>
<path d="M1131.989868,529.904602   C1119.173218,529.904602 1106.855225,529.904602 1094.209473,529.904602   C1094.209473,538.306946 1094.209473,546.537109 1094.209473,555.227661   C1113.874146,555.227661 1133.601196,555.227661 1153.675293,555.227661   C1153.675293,562.236694 1153.675293,568.800110 1153.675293,575.689453   C1125.499390,575.689453 1097.125732,575.689453 1068.548828,575.689453   C1068.548828,538.980347 1068.548828,502.403809 1068.548828,465.554382   C1096.366455,465.554382 1123.937134,465.554382 1151.749023,465.554382   C1151.749023,472.300232 1151.749023,478.878204 1151.749023,485.861877   C1132.551758,485.861877 1113.471558,485.861877 1094.138306,485.861877   C1094.138306,493.996948 1094.138306,501.730743 1094.138306,509.817688   C1110.969971,509.817688 1127.733154,509.817688 1144.804688,509.817688   C1144.804688,516.554932 1144.804688,522.949097 1144.804688,529.904602   C1140.711548,529.904602 1136.600098,529.904602 1131.989868,529.904602  z" stroke="none" opacity="1.000000" fill="#050505"/>
<path d="M1523.360352,296.714111   C1523.428589,303.293732 1523.428589,309.429138 1523.428589,315.954132   C1503.904541,315.954132 1484.814209,315.954132 1465.488281,315.954132   C1465.488281,324.080078 1465.488281,331.809387 1465.488281,339.852844   C1482.520996,339.852844 1499.304321,339.852844 1516.416016,339.852844   C1516.416016,346.551086 1516.416016,352.942902 1516.416016,359.862122   C1499.450195,359.862122 1482.557983,359.862122 1465.454834,359.862122   C1465.454834,368.479492 1465.454834,376.574707 1465.454834,385.170776   C1485.291016,385.170776 1505.025879,385.170776 1525.156494,385.170776   C1525.156494,392.212128 1525.156494,398.773010 1525.156494,405.673401   C1497.047607,405.673401 1468.820312,405.673401 1440.256348,405.673401   C1440.256348,369.154968 1440.256348,332.459503 1440.256348,295.487061   C1441.635254,295.417084 1442.927979,295.294800 1444.220825,295.294220   C1469.049194,295.282898 1493.877441,295.268433 1518.705688,295.327972   C1520.235352,295.331635 1521.763428,295.941864 1523.360352,296.714111  z" stroke="none" opacity="1.000000" fill="#040404"/>
<path d="M1343.081787,373.602478   C1349.110840,384.207611 1359.046143,388.222656 1371.403564,385.361877   C1382.049072,382.897430 1388.476929,375.328491 1388.864746,362.814606   C1389.427124,344.668243 1389.165039,326.496246 1389.246216,308.335114   C1389.264771,304.197662 1389.248779,300.060120 1389.248779,295.606079   C1397.707397,295.606079 1405.798462,295.606079 1414.044922,295.606079   C1414.192505,295.897980 1414.598755,296.325867 1414.597168,296.752258   C1414.515259,319.074707 1415.247070,341.441986 1414.067505,363.707886   C1412.647949,390.505035 1396.540771,405.946991 1369.701538,407.618469   C1362.492065,408.067444 1354.943970,407.470032 1347.928833,405.783173   C1330.444214,401.578888 1318.125244,390.218506 1316.402710,372.463562   C1313.937988,347.061859 1314.402954,321.375885 1313.608398,295.532654   C1323.140503,295.532654 1331.373169,295.532654 1340.012695,295.532654   C1340.012695,310.059387 1339.917725,324.353027 1340.047363,338.644653   C1340.128906,347.624725 1340.407715,356.609436 1340.902100,365.575317   C1341.044556,368.159393 1342.242676,370.685333 1343.081787,373.602478  z" stroke="none" opacity="1.000000" fill="#050505"/>
<path d="M1692.773682,353.803131   C1694.092896,368.536987 1701.139648,378.955872 1714.649902,383.731445   C1730.238525,389.241638 1744.166260,385.741882 1755.833618,373.019623   C1761.215332,377.988983 1766.561890,382.925842 1771.882446,387.838654   C1760.185425,404.790680 1732.074829,412.360657 1707.803467,405.275635   C1683.431152,398.161163 1667.622681,378.158905 1666.815918,353.415009   C1665.960449,327.171722 1680.080566,305.846771 1704.024292,297.221375   C1728.608887,288.365143 1757.703979,295.078857 1772.022583,313.206146   C1766.730591,318.111694 1761.410156,323.043671 1755.840942,328.206146   C1747.517944,318.927002 1737.302002,314.392548 1725.108521,315.385986   C1704.369629,317.075623 1692.153564,331.571960 1692.773682,353.803131  z" stroke="none" opacity="1.000000" fill="#030303"/>
<path d="M1192.915649,295.286469   C1196.210815,295.286469 1199.019043,295.286469 1202.134644,295.286469   C1202.134644,302.192566 1202.134644,308.781189 1202.134644,315.841309   C1183.039307,315.841309 1163.977661,315.841309 1144.683594,315.841309   C1144.683594,325.725922 1144.683594,335.145935 1144.683594,344.930420   C1161.452271,344.930420 1178.231934,344.930420 1195.377686,344.930420   C1195.377686,351.852173 1195.377686,358.426575 1195.377686,365.628845   C1178.635254,365.628845 1161.761841,365.628845 1144.496338,365.628845   C1144.496338,379.332184 1144.496338,392.421936 1144.496338,405.755920   C1135.863281,405.755920 1127.630615,405.755920 1119.158447,405.755920   C1119.158447,369.088867 1119.158447,332.506714 1119.158447,295.286469   C1143.576904,295.286469 1168.002808,295.286469 1192.915649,295.286469  z" stroke="none" opacity="1.000000" fill="#030303"/>
<path d="M1223.088013,555.999756   C1223.088013,562.809021 1223.088013,569.118408 1223.088013,575.715820   C1214.633911,575.715820 1206.380005,575.715820 1197.594849,575.715820   C1197.594849,546.066833 1197.594849,516.345398 1197.594849,486.299255   C1185.623047,486.299255 1174.171143,486.299255 1162.400635,486.299255   C1162.400635,479.256836 1162.400635,472.537964 1162.400635,465.551514   C1194.256348,465.551514 1226.013062,465.551514 1258.175537,465.551514   C1258.175537,472.195465 1258.175537,478.908966 1258.175537,485.981598   C1246.745972,485.981598 1235.314453,485.981598 1223.088013,485.981598   C1223.088013,509.382416 1223.088013,532.441162 1223.088013,555.999756  z" stroke="none" opacity="1.000000" fill="#030303"/>
<path d="M1245.437134,336.000366   C1245.437134,352.492371 1245.437134,368.484344 1245.437134,384.910950   C1263.850220,384.910950 1282.096924,384.910950 1300.655396,384.910950   C1300.655396,392.060028 1300.655396,398.782440 1300.655396,405.755920   C1273.908936,405.755920 1247.172119,405.755920 1220.180420,405.755920   C1220.180420,369.114716 1220.180420,332.529907 1220.180420,295.618896   C1228.381226,295.618896 1236.612915,295.618896 1245.437134,295.618896   C1245.437134,308.934448 1245.437134,322.217407 1245.437134,336.000366  z" stroke="none" opacity="1.000000" fill="#010101"/>
<path d="M964.989502,349.000000   C964.989502,368.132446 964.989502,386.764893 964.989502,405.703003   C956.550293,405.703003 948.302551,405.703003 939.676453,405.703003   C939.676453,369.162781 939.676453,332.499390 939.676453,295.558167   C948.019531,295.558167 956.251770,295.558167 964.989502,295.558167   C964.989502,313.301331 964.989502,330.900665 964.989502,349.000000  z" stroke="none" opacity="1.000000" fill="#050505"/>
<path d="M1537.813721,499.273224   C1551.008423,520.092957 1543.184326,546.597717 1521.928345,554.058716   C1504.687744,560.110291 1486.329346,552.946167 1478.652466,537.170837   C1470.640991,520.707825 1475.952271,500.145905 1490.662354,490.676697   C1505.804199,480.929474 1525.642578,484.430756 1537.813721,499.273224  z" stroke="none" opacity="1.000000" fill="#FDFDFD"/>
<path d="M1659.024902,509.468262   C1656.144775,519.733032 1650.018555,524.274292 1638.119751,524.760742   C1630.663452,525.065552 1623.184448,524.817444 1615.348389,524.817444   C1615.348389,512.031067 1615.348389,499.351257 1615.348389,487.014343   C1624.915161,487.014343 1634.572388,486.182953 1644.021240,487.230743   C1655.127319,488.462280 1659.909790,496.294495 1659.024902,509.468262  z" stroke="none" opacity="1.000000" fill="#FCFCFC"/>
<path d="M1938.926025,316.146484   C1942.886719,316.413025 1946.403076,316.422394 1949.825317,316.994049   C1960.014038,318.695923 1965.724976,325.506653 1965.686035,335.564575   C1965.648071,345.373627 1960.078003,352.633942 1950.158081,353.861267   C1940.815552,355.017212 1931.308838,354.845215 1921.492920,355.274109   C1921.492920,341.971283 1921.492920,329.298798 1921.492920,316.146332   C1927.220337,316.146332 1932.829468,316.146332 1938.926025,316.146484  z" stroke="none" opacity="1.000000" fill="#FAFAFA"/>
</svg>